<svg xmlns="http://www.w3.org/2000/svg" viewBox="0 0 1920 1200"><style>.st1{opacity:.2}.st2{fill:#f6c9cc}.st3{fill:#fff}.st4{fill:#f7bdc1}.st5{fill:#f5abb0}.st6{opacity:.3}.st7{fill:#fbdee1}.st8{fill:#fce7ea}.st9{fill:#fbebed}.st10{fill:#fae8ec}.st13{fill:#f9cdd1}.st14{fill:#fbdbdd}</style><g id="Camada_1"><g id="XMLID_779_"><g id="XMLID_822_" class="st1"><path id="XMLID_773_" class="st2" d="M682 1198.2c0-45.3-9.6-88.3-26.9-127.2 6.3-13 9.8-27.5 9.8-42.8 0-54.5-44.2-98.7-98.7-98.7-10.2 0-20.1 1.6-29.3 4.4-48.5-30.9-106.1-48.8-167.9-48.8-7.7 0-15.3.3-22.9.8-13.5-10.2-30.3-16.2-48.5-16.2-34.4 0-63.7 21.5-75.3 51.9-23.7 12.6-45.7 28.2-65.3 46.3-6.4-1.4-13-2.2-19.8-2.2-49.4 0-89.4 40-89.4 89.4 0 21.5 7.6 41.2 20.3 56.7-7.9 27.5-12.1 56.5-12.1 86.5h626z"/></g><g id="XMLID_811_" class="st1"><path id="XMLID_772_" class="st2" d="M596.4 1198.2c0-125.6-101.8-227.4-227.4-227.4s-227.4 101.8-227.4 227.4h454.8z"/></g><g id="XMLID_810_" class="st1"><path id="XMLID_771_" class="st2" d="M713.7 1078.7c0 9.8-8 17.8-17.8 17.8s-17.8-8-17.8-17.8 8-17.8 17.8-17.8c9.8-.1 17.8 7.9 17.8 17.8z"/></g><g id="XMLID_809_" class="st1"><circle id="XMLID_770_" transform="rotate(-45.001 437.316 856.278)" class="st2" cx="437.3" cy="856.3" r="27.5"/></g><g id="XMLID_808_" class="st1"><path id="XMLID_756_" class="st2" d="M186.5 923.4c0 6.5-5.3 11.8-11.8 11.8-6.5 0-11.8-5.3-11.8-11.8 0-6.5 5.3-11.8 11.8-11.8 6.5 0 11.8 5.3 11.8 11.8z"/></g><g id="XMLID_807_" class="st1"><circle id="XMLID_755_" class="st2" cx="545.3" cy="901.8" r="11.8"/></g><g id="XMLID_790_" class="st1"><path id="XMLID_748_" class="st2" d="M297.6 822.2c0 6.5-5.3 11.8-11.8 11.8-6.5 0-11.8-5.3-11.8-11.8 0-6.5 5.3-11.8 11.8-11.8 6.5.1 11.8 5.3 11.8 11.8z"/></g><g id="XMLID_789_" class="st1"><path id="XMLID_747_" class="st2" d="M694.2 1121.8c0 2.7-2.2 4.8-4.8 4.8-2.7 0-4.8-2.2-4.8-4.8 0-2.7 2.2-4.8 4.8-4.8 2.7 0 4.8 2.1 4.8 4.8z"/></g><g id="XMLID_788_" class="st1"><path id="XMLID_744_" class="st2" d="M543.4 818.6c0 2-1.6 3.6-3.6 3.6s-3.6-1.6-3.6-3.6 1.6-3.6 3.6-3.6 3.6 1.6 3.6 3.6z"/></g><g id="XMLID_787_" class="st1"><circle id="XMLID_743_" class="st2" cx="179.4" cy="836.7" r="4.7"/></g><g id="XMLID_786_" class="st1"><path id="XMLID_719_" class="st2" d="M-12.1 942.1c0 3.5-2.8 6.3-6.3 6.3s-6.3-2.8-6.3-6.3 2.8-6.3 6.3-6.3 6.3 2.8 6.3 6.3z"/></g><g id="XMLID_785_" class="st1"><path id="XMLID_718_" class="st2" d="M743.6 988.1c0 3.5-2.8 6.3-6.3 6.3s-6.3-2.8-6.3-6.3 2.8-6.3 6.3-6.3 6.3 2.8 6.3 6.3z"/></g><g id="XMLID_784_" class="st1"><circle id="XMLID_716_" class="st2" cx="82.5" cy="916.7" r="26.6"/></g><g id="XMLID_782_" class="st1"><path id="XMLID_715_" class="st2" d="M10.4 1110.8c0 3.5-2.8 6.3-6.3 6.3s-6.3-2.8-6.3-6.3 2.8-6.3 6.3-6.3 6.3 2.8 6.3 6.3z"/></g><g id="XMLID_781_" class="st1"><path id="XMLID_714_" class="st2" d="M703.8 923.4c0 14.3-11.6 25.8-25.8 25.8-14.3 0-25.8-11.6-25.8-25.8 0-14.3 11.6-25.8 25.8-25.8 14.3 0 25.8 11.5 25.8 25.8z"/></g><g id="XMLID_780_" class="st1"><circle id="XMLID_559_" class="st2" cx="4.1" cy="1040" r="25.4"/></g></g><g id="XMLID_7_"><g id="XMLID_145_" class="st1"><path id="XMLID_156_" class="st2" d="M1427.6 1204.8c0-62.7-13.3-122.2-37.3-176 8.7-17.9 13.5-38 13.5-59.3 0-75.4-61.1-136.5-136.5-136.5-14.1 0-27.8 2.1-40.6 6.1-67.1-42.7-146.8-67.5-232.3-67.5-10.6 0-21.2.4-31.7 1.1-18.7-14.1-41.9-22.4-67.1-22.4-47.6 0-88.2 29.8-104.2 71.7-32.9 17.5-63.2 39-90.3 64-8.8-2-18-3.1-27.4-3.1-68.3 0-123.7 55.4-123.7 123.7 0 29.8 10.5 57.1 28 78.4-10.9 38-16.8 78.2-16.8 119.7h866.4z"/></g><g id="XMLID_143_" class="st1"><path id="XMLID_144_" class="st2" d="M1309.1 1204.8c0-173.8-140.9-314.7-314.7-314.7S679.7 1031 679.7 1204.8h629.4z"/></g><g id="XMLID_99_" class="st1"><path id="XMLID_142_" class="st2" d="M1471.4 1039.5c0 13.6-11 24.7-24.7 24.7-13.6 0-24.7-11-24.7-24.7 0-13.6 11-24.7 24.7-24.7 13.6 0 24.7 11.1 24.7 24.7z"/></g><g id="XMLID_85_" class="st1"><circle id="XMLID_98_" transform="rotate(-45.001 1088.998 731.786)" class="st2" cx="1089" cy="731.8" r="38"/></g><g id="XMLID_80_" class="st1"><path id="XMLID_81_" class="st2" d="M742 824.6c0 9-7.3 16.3-16.3 16.3s-16.3-7.3-16.3-16.3 7.3-16.3 16.3-16.3 16.3 7.3 16.3 16.3z"/></g><g id="XMLID_78_" class="st1"><circle id="XMLID_79_" class="st2" cx="1238.4" cy="794.8" r="16.3"/></g><g id="XMLID_76_" class="st1"><path id="XMLID_77_" class="st2" d="M895.7 684.7c0 9-7.3 16.3-16.3 16.3s-16.3-7.3-16.3-16.3 7.3-16.3 16.3-16.3 16.3 7.3 16.3 16.3z"/></g><g id="XMLID_73_" class="st1"><path id="XMLID_75_" class="st2" d="M1444.5 1099.2a6.7 6.7 0 11-13.4 0 6.7 6.7 0 0113.4 0z"/></g><g id="XMLID_64_" class="st1"><path id="XMLID_66_" class="st2" d="M1235.7 679.7c0 2.8-2.2 5-5 5s-5-2.2-5-5 2.2-5 5-5 5 2.2 5 5z"/></g><g id="XMLID_58_" class="st1"><circle id="XMLID_63_" class="st2" cx="732.1" cy="704.7" r="6.5"/></g><g id="XMLID_54_" class="st1"><path id="XMLID_55_" class="st2" d="M467.2 850.5c0 4.8-3.9 8.7-8.7 8.7-4.8 0-8.7-3.9-8.7-8.7 0-4.8 3.9-8.7 8.7-8.7 4.8 0 8.7 3.9 8.7 8.7z"/></g><g id="XMLID_52_" class="st1"><path id="XMLID_53_" class="st2" d="M1512.7 914.1c0 4.8-3.9 8.7-8.7 8.7-4.8 0-8.7-3.9-8.7-8.7 0-4.8 3.9-8.7 8.7-8.7 4.8 0 8.7 3.9 8.7 8.7z"/></g><g id="XMLID_50_" class="st1"><circle id="XMLID_51_" class="st2" cx="598" cy="815.3" r="36.8"/></g><g id="XMLID_46_" class="st1"><path id="XMLID_47_" class="st2" d="M498.3 1083.9c0 4.8-3.9 8.7-8.7 8.7-4.8 0-8.7-3.9-8.7-8.7 0-4.8 3.9-8.7 8.7-8.7 4.8 0 8.7 3.9 8.7 8.7z"/></g><g id="XMLID_41_" class="st1"><path id="XMLID_42_" class="st2" d="M1457.7 824.6c0 19.7-16 35.7-35.7 35.7-19.7 0-35.7-16-35.7-35.7 0-19.7 16-35.7 35.7-35.7 19.7 0 35.7 16 35.7 35.7z"/></g><g id="XMLID_17_" class="st1"><circle id="XMLID_36_" class="st2" cx="489.6" cy="985.9" r="35.1"/></g></g><g id="XMLID_363_"><g id="XMLID_804_" class="st1"><path id="XMLID_805_" class="st2" d="M1968.5 1199c0-45.3-9.6-88.3-26.9-127.2 6.3-13 9.8-27.5 9.8-42.8 0-54.5-44.2-98.7-98.7-98.7-10.2 0-20.1 1.6-29.3 4.4-48.5-30.9-106.1-48.8-167.9-48.8-7.7 0-15.3.3-22.9.8-13.5-10.2-30.3-16.2-48.5-16.2-34.4 0-63.7 21.5-75.3 51.9-23.7 12.6-45.7 28.2-65.3 46.3-6.4-1.4-13-2.2-19.8-2.2-49.4 0-89.4 40-89.4 89.4 0 21.5 7.6 41.2 20.3 56.7-7.9 27.5-12.1 56.5-12.1 86.5h626z"/></g><g id="XMLID_802_" class="st1"><path id="XMLID_803_" class="st2" d="M1882.8 1199c0-125.6-101.8-227.4-227.4-227.4S1428 1073.4 1428 1199h454.8z"/></g><g id="XMLID_800_" class="st1"><path id="XMLID_801_" class="st2" d="M2000.1 1079.5c0 9.8-8 17.8-17.8 17.8s-17.8-8-17.8-17.8 8-17.8 17.8-17.8 17.8 7.9 17.8 17.8z"/></g><g id="XMLID_798_" class="st1"><circle id="XMLID_799_" transform="rotate(-45.001 1723.758 857.106)" class="st2" cx="1723.8" cy="857.1" r="27.5"/></g><g id="XMLID_794_" class="st1"><path id="XMLID_795_" class="st2" d="M1472.9 924.2c0 6.5-5.3 11.8-11.8 11.8-6.5 0-11.8-5.3-11.8-11.8 0-6.5 5.3-11.8 11.8-11.8 6.6 0 11.8 5.3 11.8 11.8z"/></g><g id="XMLID_737_" class="st1"><circle id="XMLID_775_" class="st2" cx="1831.7" cy="902.6" r="11.8"/></g><g id="XMLID_735_" class="st1"><path id="XMLID_736_" class="st2" d="M1584 823.1c0 6.5-5.3 11.8-11.8 11.8s-11.8-5.3-11.8-11.8c0-6.5 5.3-11.8 11.8-11.8s11.8 5.3 11.8 11.8z"/></g><g id="XMLID_733_" class="st1"><path id="XMLID_734_" class="st2" d="M1980.7 1122.6c0 2.7-2.2 4.8-4.8 4.8-2.7 0-4.8-2.2-4.8-4.8 0-2.7 2.2-4.8 4.8-4.8 2.6 0 4.8 2.2 4.8 4.8z"/></g><g id="XMLID_731_" class="st1"><path id="XMLID_732_" class="st2" d="M1829.8 819.4c0 2-1.6 3.6-3.6 3.6s-3.6-1.6-3.6-3.6 1.6-3.6 3.6-3.6 3.6 1.6 3.6 3.6z"/></g><g id="XMLID_729_" class="st1"><circle id="XMLID_730_" class="st2" cx="1465.8" cy="837.5" r="4.7"/></g><g id="XMLID_727_" class="st1"><path id="XMLID_728_" class="st2" d="M1274.3 942.9c0 3.5-2.8 6.3-6.3 6.3s-6.3-2.8-6.3-6.3 2.8-6.3 6.3-6.3 6.3 2.8 6.3 6.3z"/></g><g id="XMLID_725_" class="st1"><path id="XMLID_726_" class="st2" d="M2030 988.9c0 3.5-2.8 6.3-6.3 6.3s-6.3-2.8-6.3-6.3 2.8-6.3 6.3-6.3 6.3 2.8 6.3 6.3z"/></g><g id="XMLID_723_" class="st1"><circle id="XMLID_724_" class="st2" cx="1368.9" cy="917.5" r="26.6"/></g><g id="XMLID_721_" class="st1"><path id="XMLID_722_" class="st2" d="M1296.8 1111.6c0 3.5-2.8 6.3-6.3 6.3s-6.3-2.8-6.3-6.3 2.8-6.3 6.3-6.3 6.3 2.8 6.3 6.3z"/></g><g id="XMLID_371_" class="st1"><path id="XMLID_646_" class="st2" d="M1990.3 924.2c0 14.3-11.6 25.8-25.8 25.8-14.3 0-25.8-11.6-25.8-25.8 0-14.3 11.6-25.8 25.8-25.8 14.2 0 25.8 11.5 25.8 25.8z"/></g><g id="XMLID_365_" class="st1"><circle id="XMLID_366_" class="st2" cx="1290.5" cy="1040.8" r="25.4"/></g></g><g id="XMLID_459_"><path class="st3" d="M522.2 1060.8h127v137.3h-127z" id="XMLID_638_"/><path class="st2" d="M538.2 1102.6h96.6v49.7h-96.6z" id="XMLID_505_"/><path class="st4" d="M522.2 1060.8h127v23.7h-127z" id="XMLID_637_"/><g id="XMLID_618_"><path id="XMLID_1260_" class="st5" d="M651.7 1197.5h-3.9v-135.4H524.7v135.4h-3.9v-139.3h130.9z"/></g><g id="XMLID_610_"><path id="XMLID_1259_" class="st5" d="M523.2 1083.5h126.6v3.9H523.2z"/></g><g id="XMLID_584_"><path id="XMLID_1258_" class="st3" d="M533.5 1071.3h6v3.9h-6z"/></g><g id="XMLID_582_"><path id="XMLID_1257_" class="st3" d="M544.7 1071.3h6v3.9h-6z"/></g><g id="XMLID_580_"><path id="XMLID_1256_" class="st3" d="M555.8 1071.3h6v3.9h-6z"/></g><g id="XMLID_562_"><g id="XMLID_577_"><path id="XMLID_1255_" transform="rotate(-42.862 601.538 1157.683)" class="st5" d="M599.6 1144.4h3.9v26.5h-3.9z"/></g><g id="XMLID_564_"><path id="XMLID_1254_" class="st5" d="M594.5 1163.5h-3.9V1146H607v3.9h-12.5z"/></g><g id="XMLID_563_"><path id="XMLID_1229_" class="st5" d="M595 1175.9c-2.9-.3-5.6-1.2-8.1-2.7l1.9-3.4c2.1 1.2 4.3 1.9 6.7 2.2l-.5 3.9zm-14.7-8.2c-.6-.8-1.2-1.6-1.8-2.5-1-1.5-1.8-3.2-2.4-4.9l3.7-1.3c.5 1.5 1.2 2.9 2 4.2.5.7.9 1.4 1.5 2.1l-3 2.4zm39.5-12.7l-3.9-.5c.1-.9.2-1.8.2-2.7 0-1.5-.2-3-.4-4.4l3.8-.8c.3 1.7.5 3.5.5 5.2 0 1.1-.1 2.2-.2 3.2zm-45-3c0-2.9.4-5.7 1.3-8.3l3.7 1.2c-.7 2.2-1.1 4.6-1.1 6.9l-3.9.2zm38.3-11.3l-.2-.3c-1.2-2-2.7-3.7-4.5-5l2.4-3.1c2.1 1.7 3.9 3.7 5.4 6.1l.2.3-3.3 2zm-29.9-2.1l-3.1-2.4c1.3-1.7 2.9-3.2 4.6-4.4l1.8-1.2 2 3.4c-.5.3-1 .6-1.5 1-1.4 1-2.7 2.2-3.8 3.6zm18.9-6.4c-2.3-.6-4.6-.8-7-.5l-.5-3.9c2.9-.4 5.8-.1 8.6.6l-1.1 3.8z"/></g></g></g><g id="XMLID_121_"><path id="XMLID_1228_" class="st5" d="M592.9 1016.1H564c-1.1 0-2-.9-2-2s.9-2 2-2h28.9c1.1 0 2 .9 2 2 0 1.2-.9 2-2 2z"/></g><g id="XMLID_120_"><path id="XMLID_1227_" class="st5" d="M604.3 1016.1h-5.5c-1.1 0-2-.9-2-2s.9-2 2-2h5.5c1.1 0 2 .9 2 2 0 1.2-.9 2-2 2z"/></g><g id="XMLID_117_"><g id="XMLID_119_"><path id="XMLID_1226_" class="st5" d="M622.9 1016.1h-9.6c-1.1 0-2-.9-2-2s.9-2 2-2h9.6c1.1 0 2 .9 2 2 0 1.2-.9 2-2 2z"/></g><g id="XMLID_118_"><path id="XMLID_1225_" class="st5" d="M618.1 1020.9c-1.1 0-2-.9-2-2v-9.6c0-1.1.9-2 2-2s2 .9 2 2v9.6c0 1.2-.9 2-2 2z"/></g></g><g id="XMLID_61_"><g id="XMLID_110_"><path id="XMLID_1224_" class="st5" d="M797 1020.2h-11.2c-1.1 0-2-.9-2-2s.9-2 2-2H797c1.1 0 2 .9 2 2-.1 1.2-.9 2-2 2z"/></g><g id="XMLID_62_"><path id="XMLID_1223_" class="st5" d="M791.4 1025.8c-1.1 0-2-.9-2-2v-11.2c0-1.1.9-2 2-2s2 .9 2 2v11.2c0 1.1-.9 2-2 2z"/></g></g><g id="XMLID_89_"><g id="XMLID_97_"><path id="XMLID_1222_" class="st5" d="M479.8 1082.9h-11.2c-1.1 0-2-.9-2-2s.9-2 2-2h11.2c1.1 0 2 .9 2 2-.1 1.1-.9 2-2 2z"/></g><g id="XMLID_95_"><path id="XMLID_1221_" class="st5" d="M474.2 1088.5c-1.1 0-2-.9-2-2v-11.2c0-1.1.9-2 2-2s2 .9 2 2v11.2c-.1 1.1-.9 2-2 2z"/></g></g><g id="XMLID_49_"><g id="XMLID_60_"><path id="XMLID_1220_" class="st5" d="M688.9 972.1c-.5 0-1-.2-1.4-.6l-7.9-7.9c-.8-.8-.8-2 0-2.8.8-.8 2-.8 2.8 0l7.9 7.9c.8.8.8 2 0 2.8-.4.4-.9.6-1.4.6z"/></g><g id="XMLID_59_"><path id="XMLID_1219_" class="st5" d="M681 972.1c-.5 0-1-.2-1.4-.6-.8-.8-.8-2 0-2.8l7.9-7.9c.8-.8 2-.8 2.8 0 .8.8.8 2 0 2.8l-7.9 7.9c-.4.4-.9.6-1.4.6z"/></g></g><g id="XMLID_44_"><g id="XMLID_48_"><path id="XMLID_1218_" class="st5" d="M529.6 984.2c-.5 0-1-.2-1.4-.6-.8-.8-.8-2 0-2.8l7.9-7.9c.8-.8 2-.8 2.8 0 .8.8.8 2 0 2.8l-7.9 7.9c-.4.5-.9.6-1.4.6z"/></g><g id="XMLID_45_"><path id="XMLID_1217_" class="st5" d="M537.5 984.2c-.5 0-1-.2-1.4-.6l-7.9-7.9c-.8-.8-.8-2 0-2.8.8-.8 2-.8 2.8 0l7.9 7.9c.8.8.8 2 0 2.8-.4.5-.9.6-1.4.6z"/></g></g><g id="XMLID_35_"><g id="XMLID_40_"><path id="XMLID_1182_" class="st5" d="M886.8 1070.3c-.5 0-1-.2-1.4-.6-.8-.8-.8-2 0-2.8l7.9-7.9c.8-.8 2-.8 2.8 0 .8.8.8 2 0 2.8l-7.9 7.9c-.3.4-.8.6-1.4.6z"/></g><g id="XMLID_37_"><path id="XMLID_303_" class="st5" d="M894.7 1070.3c-.5 0-1-.2-1.4-.6l-7.9-7.9c-.8-.8-.8-2 0-2.8.8-.8 2-.8 2.8 0l7.9 7.9c.8.8.8 2 0 2.8-.3.4-.8.6-1.4.6z"/></g></g><g id="XMLID_114_"><g id="XMLID_133_"><path id="XMLID_302_" class="st5" d="M826.1 960.1c-.5 0-1-.2-1.4-.6-.8-.8-.8-2 0-2.8l7.9-7.9c.8-.8 2-.8 2.8 0 .8.8.8 2 0 2.8l-7.9 7.9c-.4.5-.9.6-1.4.6z"/></g><g id="XMLID_127_"><path id="XMLID_301_" class="st5" d="M834 960.1c-.5 0-1-.2-1.4-.6l-7.9-7.9c-.8-.8-.8-2 0-2.8.8-.8 2-.8 2.8 0l7.9 7.9c.8.8.8 2 0 2.8-.4.5-.9.6-1.4.6z"/></g></g><g id="XMLID_34_"><path id="XMLID_299_" class="st5" d="M588.1 1036.3H466.2c-1.1 0-2-.9-2-2s.9-2 2-2h121.9c1.1 0 2 .9 2 2s-.9 2-2 2z"/></g><g id="XMLID_69_"><path id="XMLID_295_" class="st5" d="M909.6 1020.2H808.1c-1.1 0-2-.9-2-2s.9-2 2-2h101.5c1.1 0 2 .9 2 2 0 1.2-.9 2-2 2z"/></g><g id="XMLID_33_"><path id="XMLID_293_" class="st5" d="M808.2 968.1h-82.8c-1.1 0-2-.9-2-2s.9-2 2-2h82.8c1.1 0 2 .9 2 2s-.9 2-2 2z"/></g><g id="XMLID_27_"><path id="XMLID_292_" class="st5" d="M715 968.1h-12.6c-1.1 0-2-.9-2-2s.9-2 2-2H715c1.1 0 2 .9 2 2s-.9 2-2 2z"/></g><path class="st5" d="M455.8 1121l4.9-2.9 5 2.9v5.7l-5 2.9-4.9-2.9z" id="XMLID_25_"/><path class="st5" d="M863.1 985.8l5-2.8 5 2.8v5.8l-5 2.8-5-2.8z" id="XMLID_746_"/><path class="st5" d="M946.3 1131.6l5-2.9 4.9 2.9v5.7l-4.9 2.9-5-2.9z" id="XMLID_24_"/><path class="st5" d="M597.6 950.4l6.7-3.9 6.7 3.9v7.7l-6.7 3.9-6.7-3.9z" id="XMLID_20_"/><path class="st3" d="M753.1 1000.7c0-5.5-4.4-9.9-9.9-9.9h-97.6c-5.5 0-9.9 4.4-9.9 9.9v187.5c0 5.5 4.4 9.9 9.9 9.9h97.6c5.5 0 9.9-4.4 9.9-9.9v-187.5z" id="XMLID_926_"/><path class="st4" d="M635.6 1022.5H753v146.1H635.6z" id="XMLID_925_"/><g id="XMLID_924_" class="st6"><path id="XMLID_290_" class="st5" d="M743.1 990.8h-13.6c5.5 0 9.9 4.4 9.9 9.9v187.5c0 5.5-4.4 9.9-9.9 9.9h13.6c5.5 0 9.9-4.4 9.9-9.9v-187.5c.1-5.4-4.4-9.9-9.9-9.9z"/></g><g id="XMLID_923_" class="st6"><path id="XMLID_267_" class="st7" d="M645.6 990.8h13.6c-5.5 0-9.9 4.4-9.9 9.9v187.5c0 5.5 4.4 9.9 9.9 9.9h-13.6c-5.5 0-9.9-4.4-9.9-9.9v-187.5c-.1-5.4 4.4-9.9 9.9-9.9z"/></g><g id="XMLID_906_"><path id="XMLID_283_" class="st5" d="M743.1 1200.1h-97.6c-6.5 0-11.9-5.3-11.9-11.9v-187.5c0-6.5 5.3-11.9 11.9-11.9h97.6c6.5 0 11.9 5.3 11.9 11.9v187.5c0 6.6-5.3 11.9-11.9 11.9zm-97.5-207.3c-4.4 0-8 3.6-8 8v187.5c0 4.4 3.6 8 8 8h97.6c4.4 0 8-3.6 8-8v-187.5c0-4.4-3.6-8-8-8h-97.6z"/></g><g id="XMLID_920_"><path id="XMLID_282_" class="st5" d="M635.6 1018.8H753v3.9H635.6z"/></g><g id="XMLID_919_"><path id="XMLID_269_" class="st5" d="M675.5 1004.5h37.7v3.9h-37.7z"/></g><g id="XMLID_918_"><path id="XMLID_268_" class="st5" d="M635.6 1166.6H753v3.9H635.6z"/></g><g id="XMLID_560_" class="st6"><path id="XMLID_215_" class="st5" d="M755 1188.2v-129.7l-45.8 27.4 2 3.4 5.2-3.1v6.6h12.9v10.5h5.4v58.6h-5.4v11.2h-5v9.8h-6.7c-1.2 0-2.2 1-2.2 2.2v15H743c6.7 0 12-5.3 12-11.9z"/></g><g id="XMLID_92_"><path class="st3" d="M795.8 1041.2l-69.5 42.4v7.2h138.5v-7.9z" id="XMLID_576_"/><path class="st2" d="M795.8 1041.2l-7.3 4.8 72.4 43.9v.9h3.9v-7.9z" id="XMLID_439_"/><path class="st3" d="M832.7 1100.2h17.6v63.6h-17.6z" id="XMLID_377_"/><path class="st8" d="M841.8 1100.2h8.4v63.6h-8.4z" id="XMLID_376_"/><path class="st3" d="M787.9 1100.2h17.6v63.6h-17.6z" id="XMLID_375_"/><path class="st8" d="M797.1 1100.2h8.4v63.6h-8.4z" id="XMLID_571_"/><path class="st3" d="M744.6 1100.2h17.6v63.6h-17.6z" id="XMLID_331_"/><path class="st8" d="M753.8 1100.2h8.4v63.6h-8.4z" id="XMLID_311_"/><path class="st3" d="M859.2 1184.9v-9.8H734.3v9.8h-8.6c-.1 0-.2.1-.2.2v13h142.8v-13c0-.1-.1-.2-.2-.2h-8.9z" id="XMLID_308_"/><path class="st2" d="M725.6 1184.9c-.1 0-.2.1-.2.2v13h142.8v-13c0-.1-.1-.2-.2-.2H725.6z" id="XMLID_555_"/><path class="st3" d="M783.4 1163.8h26.7v9.9h-26.7z" id="XMLID_307_"/><path class="st3" d="M828.4 1163.8h26.7v9.9h-26.7z" id="XMLID_544_"/><path class="st3" d="M739.3 1163.8H766v9.9h-26.7z" id="XMLID_306_"/><path class="st3" d="M783.4 1090.3h26.7v9.9h-26.7z" id="XMLID_305_"/><path class="st3" d="M828.4 1090.3h26.7v9.9h-26.7z" id="XMLID_556_"/><path class="st3" d="M739.3 1090.3H766v9.9h-26.7z" id="XMLID_304_"/><g id="XMLID_289_"><path id="XMLID_1234_" class="st5" d="M870.1 1200.1H723.4v-15c0-1.2 1-2.2 2.2-2.2h6.7v-9.8h5v-11.2h5.4v-58.6h-5.4v-10.5h-12.9v-6.6l-5.2 3.1-2-3.4 78.7-47.1 1.2.6 76.2 44.7-2 3.4-4.4-2.6v7.7h-10.6v10.5h-5.1v58.6h5.1v11.2h4.9v9.9h6.7c1.2 0 2.2 1 2.2 2.2v15.1zm-142.8-3.9h138.8v-9.4h-8.9v-9.9h-121v9.9h-8.9v9.4zm102.2-23.2h22.8v-7.3h-22.8v7.3zm-17.5 0h13.6v-11.2h5.1v-58.6h-5.1v-10.5H812v10.5h-5.1v58.6h5.1v11.2zm-26.7 0h22.8v-7.3h-22.8v7.3zm-17.4 0h13.6v-11.2h5.1v-58.6h-5.1v-10.5h-13.6v10.5H763v58.6h4.8v11.2zm-26.7 0H764v-7.3h-22.8v7.3zm93.4-11.2h12.5v-58.6h-12.5v58.6zm-44.1 0H803v-58.6h-12.5v58.6zm-43.9 0h12.5v-58.6h-12.5v58.6zm82.9-62.4h22.8v-6.6h-22.8v6.6zm-44.2 0h22.8v-6.6h-22.8v6.6zm-44.1 0H764v-6.6h-22.8v6.6zm-13-10.6h134.7v-6.1l-67.1-39.3-67.6 40.5v4.9zm70.6 98h-58.1v-3.9h58.1v3.9zm21.4-104.6h-62.9c-1.1 0-2-.7-2.3-1.8-.3-1 .1-2.1 1.1-2.7l33-19.7 2 3.4-28.2 16.9h57.4v3.9z"/></g></g><g id="XMLID_181_"><path class="st4" d="M565.3 1154.3h-2.9c-1.8 0-3.4-1.2-3.9-3-1.2-4.2-3.4-8-6.3-11.2l-.7-.1 3.2-11.7c.1-.5-.4-.8-.8-.7-2.7 1-5.5 0-11.9 4l-2.9-1.6c-2.8-1.6-5.8-2.7-9-3.3-5-.9-10.2-.3-14.8 1.8l-7 3.1c-1.8.8-3.5 1.8-4.9 3.1-6.6 5.9-12.1 15.5-12.1 23.7 0 7.3 3.1 14.1 8.1 19.3v18.2c0 .1.1.2.2.2h16.6c.1 0 .2-.1.2-.2v-8.7c2.9.7 5.9 1 9 1 1.9 0 3.8-.1 5.6-.4v8.1c0 .1.1.2.2.2h16.6c.1 0 .2-.1.2-.2v-15.2c3.6-2.8 6.5-6.2 8.5-10 .7-1.4 2.2-2.3 3.8-2.3h5s.1 0 .1-.1l-.1-14c0 .1 0 0 0 0z" id="XMLID_457_"/><circle transform="rotate(-6.636 520.5 1116.526)" class="st3" cx="520.6" cy="1117" id="XMLID_633_" r="20.4"/><path class="st2" d="M520.6 1096.5c-3.6 0-6.9.9-9.8 2.5 1-.1 2-.2 3-.2 11.3 0 20.4 9.2 20.4 20.4 0 7.7-4.3 14.4-10.6 17.9 9.9-1.5 17.5-9.9 17.5-20.2-.1-11.2-9.2-20.4-20.5-20.4z" id="XMLID_631_"/><path class="st5" d="M560.3 1168.4h5s.1 0 .1-.1v-2.7c-27.4 6.3-57.4 10.6-73.7-11.4-.3 1.4-.5 2.8-.5 4.2 0 7.3 3.1 14.1 8.1 19.3v18.2c0 .1.1.2.2.2h16.6c.1 0 .2-.1.2-.2v-8.7c2.9.7 5.9 1 9 1 1.9 0 3.8-.1 5.6-.4v8.1c0 .1.1.2.2.2h16.6c.1 0 .2-.1.2-.2v-15.2c3.6-2.8 6.5-6.2 8.5-10 .8-1.4 2.3-2.3 3.9-2.3z" id="XMLID_456_"/><g id="XMLID_445_"><path id="XMLID_1216_" class="st5" d="M551.9 1144.6l-3.8-1 3.6-13.2c-2.9 1.1-6.9 3-8.9 8.2l-3.7-1.4c3-7.7 9.3-9.8 12.6-10.9.4-.1.7-.2 1-.4.9-.3 1.8-.2 2.5.4.7.6 1.1 1.5.9 2.4l-.1.3-4.1 15.6z"/></g><g id="XMLID_446_"><g id="XMLID_450_"><g id="XMLID_455_"><path id="XMLID_1215_" class="st5" d="M523.1 1128.9h-10.2v-3.9h10.2c1.6 0 2.9-1.3 2.9-2.9 0-1.6-1.3-2.9-2.9-2.9h-4.7c-3.8 0-6.9-3.1-6.9-6.9 0-3.8 3.1-6.9 6.9-6.9h9.9v3.9h-9.9c-1.6 0-2.9 1.3-2.9 2.9 0 1.6 1.3 2.9 2.9 2.9h4.7c3.8 0 6.9 3.1 6.9 6.9-.1 3.9-3.1 6.9-6.9 6.9z"/></g><g id="XMLID_453_"><path id="XMLID_1214_" class="st5" d="M519 1102.3h3.9v5.1H519z"/></g><g id="XMLID_452_"><path id="XMLID_1213_" class="st5" d="M519 1126.9h3.9v4.7H519z"/></g></g><g id="XMLID_448_"><path id="XMLID_1210_" class="st5" d="M520.6 1139.4c-12.4 0-22.4-10.1-22.4-22.4 0-12.4 10.1-22.4 22.4-22.4 12.4 0 22.4 10.1 22.4 22.4 0 12.3-10.1 22.4-22.4 22.4zm0-40.9c-10.2 0-18.5 8.3-18.5 18.5s8.3 18.5 18.5 18.5 18.5-8.3 18.5-18.5c-.1-10.2-8.3-18.5-18.5-18.5z"/></g></g><g id="XMLID_444_"><path id="XMLID_1209_" class="st5" d="M547.5 1198.1h-16.6c-1.2 0-2.2-1-2.2-2.2v-5.9c-3.6.3-7.2.2-10.6-.4v6.3c0 1.2-1 2.2-2.2 2.2h-16.6c-1.2 0-2.2-1-2.2-2.2v-17.4c-5.3-5.6-8.1-12.7-8.1-20 0-9.5 4.8-18.5 13.3-24.5l2.3 3.2c-7.4 5.3-11.6 13.1-11.6 21.4 0 6.5 2.7 12.9 7.6 17.9l.6.6v17.2h13.1v-9.4l2.4.6c4.5 1.1 9.2 1.3 13.8.6l2.2-.3v8.6h13.1V1180l.8-.6c3.4-2.6 6-5.7 7.9-9.3 1.1-2.1 3.3-3.4 5.6-3.4h3.1v-10.2h-1c-2.7 0-5-1.8-5.8-4.5-1.1-3.8-3.1-7.3-5.9-10.4l2.9-2.6c3.2 3.5 5.5 7.6 6.7 11.9.3 1 1.1 1.6 2 1.6h4.9l.1 2v15.9l-2 .1h-5c-.9 0-1.7.5-2.1 1.3-2 3.8-4.7 7.1-8.2 10v14.2c-.1 1.1-1.1 2.1-2.3 2.1z"/></g><g id="XMLID_443_"><path id="XMLID_1208_" class="st5" d="M542.8 1135.4c-1.1-.6-2.3-1.2-3.5-1.7l1.5-3.6c1.3.6 2.6 1.2 3.9 1.9l-1.9 3.4z"/></g><g id="XMLID_442_"><path id="XMLID_1207_" class="st5" d="M508 1143.4h28.8v3.9H508z"/></g><g id="XMLID_441_"><path id="XMLID_1204_" class="st5" d="M478.8 1168.4l-.7-3.9c.5-.1.9-.2 1.3-.4-1-.7-1.5-1.9-1.8-2.5-.6-1.3-1.2-2.9-1.2-4.7.1-2.3 1.4-4.3 3.2-5 1.9-.7 4.2-.1 5.6 1.5 1.1 1.2 1.7 2.9 1.8 4.8 0 .4 0 .9-.1 1.3.9-.6 1.7-1.3 2.4-2.2l3.1 2.4c-2 2.5-4.7 4.2-7.6 4.9-1.4 1.9-3.6 3.3-6 3.8zm2.9-7.5h.8c.4-.9.6-1.8.6-2.7 0-1-.3-1.8-.7-2.3-.4-.4-.9-.6-1.3-.5-.4.2-.7.8-.8 1.5 0 1 .4 2 .8 3 .3.7.5.9.6 1z"/></g><g id="XMLID_440_"><path id="XMLID_1203_" class="st5" d="M538 1151.4h6v3.9h-6z"/></g></g><g id="XMLID_467_"><g id="XMLID_473_"><path id="XMLID_1202_" class="st3" d="M696.9 1099.8l-8.7-8.7 2.7-2.8 6 6 17-17 2.8 2.8z"/></g><g id="XMLID_468_"><path id="XMLID_1201_" class="st3" d="M695.4 1115.9c-13.6 0-24.7-11.1-24.7-24.7s11.1-24.7 24.7-24.7c4.4 0 8.8 1.2 12.6 3.4l-2 3.4c-3.2-1.9-6.8-2.9-10.6-2.9-11.5 0-20.8 9.3-20.8 20.8s9.3 20.8 20.8 20.8 20.8-9.3 20.8-20.8h3.9c0 13.6-11.1 24.7-24.7 24.7z"/></g></g><g id="XMLID_197_"><path class="st3" d="M839.9 1136.1v-7.7c0-.2.2-.4.4-.4H929c.2 0 .5.2.5.5v57.9c0 .2-.2.5-.5.5h-79.3l-9.5-11.8-.3-39z" id="XMLID_558_"/><path class="st7" d="M929 1127.9h-88.6c-.2 0-.4.2-.4.4v4.6c0-.2.2-.4.4-.4H929c.2 0 .5.2.5.5v-4.6c-.1-.3-.3-.5-.5-.5z" id="XMLID_793_"/><path class="st3" d="M839.9 1147.5v-7.7c0-.2.2-.4.4-.4H929c.2 0 .5.2.5.5v57.9c0 .2-.2.5-.5.5h-79.3l-9.5-11.8-.3-39z" id="XMLID_792_"/><path class="st4" d="M898 1167.7v-12c0-.1.1-.2.2-.2h18.4c.1 0 .2.1.2.2v12c0 .1-.1.2-.2.2h-18.4c-.2 0-.2-.1-.2-.2z" id="XMLID_791_"/><path class="st4" d="M862 1189.7l-12.4 8.5h-.2l-12.4-8.5c-6.4-4.4-10.3-11.7-10.3-19.5v-18c0-.3.3-.6.6-.6h44.2c.3 0 .6.3.6.6v18c.2 7.8-3.6 15.1-10.1 19.5z" id="XMLID_557_"/><g id="XMLID_547_"><g id="XMLID_551_"><path id="XMLID_1200_" class="st5" d="M931.4 1133.3h-3.9v-4.7h-85.6v4.7H838v-6.2c0-1.3 1.1-2.4 2.4-2.4H929c1.3 0 2.4 1.1 2.4 2.4v6.2z"/></g></g><g id="XMLID_524_"><g id="XMLID_545_"><path id="XMLID_1199_" class="st5" d="M929 1200.1h-66.2v-3.9h64.7v-54.9h-85.6v6.2H838v-7.7c0-1.3 1.1-2.4 2.4-2.4H929c1.3 0 2.4 1.1 2.4 2.4v57.9c0 1.3-1.1 2.4-2.4 2.4z"/></g><g id="XMLID_543_"><path id="XMLID_1198_" class="st5" d="M909.6 1182.9h9.4v3.9h-9.4z"/></g><g id="XMLID_783_"><path id="XMLID_1197_" class="st5" d="M895.5 1182.9h9.4v3.9h-9.4z"/></g><g id="XMLID_529_"><path id="XMLID_1196_" class="st5" d="M884.7 1182.9h6.1v3.9h-6.1z"/></g><g id="XMLID_526_"><path id="XMLID_1193_" class="st5" d="M916.2 1169.9h-17.7c-1.4 0-2.5-1.1-2.5-2.5V1156c0-1.4 1.1-2.5 2.5-2.5h17.7c1.4 0 2.5 1.1 2.5 2.5v11.4c0 1.4-1.1 2.5-2.5 2.5zm-16.3-3.9h14.9v-8.5h-14.9v8.5z"/></g></g><path class="st3" d="M849.6 1156.5c-7.8 0-14.1 6.3-14.1 14.1s6.3 14.1 14.1 14.1 14.1-6.3 14.1-14.1-6.3-14.1-14.1-14.1z" id="XMLID_506_"/><path class="st7" d="M849.6 1156.5c-5.1 0-9.5 2.7-12 6.7 2.2-1.3 4.7-2.1 7.4-2.1 7.8 0 14.1 6.3 14.1 14.1 0 2.7-.8 5.3-2.1 7.4 4-2.5 6.7-6.9 6.7-12 0-7.8-6.3-14.1-14.1-14.1z" id="XMLID_552_"/><g id="XMLID_520_"><path id="XMLID_1192_" class="st5" d="M846 1178.8l-7.2-7.2 2.8-2.8 4.4 4.5 9.4-9.5 2.8 2.8z"/></g><g id="XMLID_511_"><path id="XMLID_1189_" class="st5" d="M849.7 1200.5l-1.3-.8-12.3-8.4c-7-4.8-11.1-12.6-11.1-21.1v-18c0-1.4 1.2-2.6 2.6-2.6h44.2c1.4 0 2.6 1.2 2.6 2.6v18c0 8.4-4.2 16.3-11.1 21.1l-13.6 9.2zm-20.9-46.9v16.6c0 7.1 3.5 13.8 9.4 17.9l11.4 7.8 11.4-7.8c5.9-4 9.4-10.7 9.4-17.9v-16.6h-41.6z"/></g><g id="XMLID_508_"><path id="XMLID_1186_" class="st5" d="M849.6 1186.7c-8.9 0-16.1-7.2-16.1-16.1 0-8.9 7.2-16.1 16.1-16.1 8.9 0 16.1 7.2 16.1 16.1-.1 8.9-7.3 16.1-16.1 16.1zm0-28.2c-6.7 0-12.2 5.5-12.2 12.2 0 6.7 5.5 12.2 12.2 12.2 6.7 0 12.2-5.5 12.2-12.2-.1-6.8-5.5-12.2-12.2-12.2z"/></g></g><g id="XMLID_122_"><g id="XMLID_125_"><path id="XMLID_1185_" class="st5" d="M943.6 1200.1H462c-1.1 0-2-.9-2-2s.9-2 2-2h481.6c1.1 0 2 .9 2 2s-.9 2-2 2z"/></g><g id="XMLID_124_"><path id="XMLID_1184_" class="st5" d="M957.8 1200.1h-7.1c-1.1 0-2-.9-2-2s.9-2 2-2h7.1c1.1 0 2 .9 2 2s-.9 2-2 2z"/></g><g id="XMLID_123_"><path id="XMLID_1183_" class="st5" d="M455 1200.1h-12.1c-1.1 0-2-.9-2-2s.9-2 2-2H455c1.1 0 2 .9 2 2-.1 1.1-.9 2-2 2z"/></g></g><g id="XMLID_686_" class="st6"><path id="XMLID_1132_" class="st5" d="M675.6 1170.2v-22.4c0-1.2-1-2.2-2.2-2.2h-2.9v-5.9c0-7.2-5.9-13.1-13-13.1-7.2 0-13.1 5.9-13.1 13.1v5.9h-2.9c-1.2 0-2.2 1-2.2 2.2v22.4h-18.8v26.3h75.7v-26.3h-20.6zm-27.6-30.6c0-5.3 4.3-9.5 9.5-9.5 5.3 0 9.5 4.3 9.5 9.5v5.9h-19v-5.9z"/></g><g id="XMLID_1_"><g id="XMLID_38_"><path id="XMLID_39_" class="st5" d="M489.5 1198.6H8c-1.1 0-2-.9-2-2s.9-2 2-2h481.6c1.1 0 2 .9 2 2-.1 1.1-1 2-2.1 2z"/></g><g id="XMLID_5_"><path id="XMLID_6_" class="st5" d="M503.7 1198.6h-7.1c-1.1 0-2-.9-2-2s.9-2 2-2h7.1c1.1 0 2 .9 2 2s-.9 2-2 2z"/></g><g id="XMLID_2_"><path id="XMLID_4_" class="st5" d="M.9 1198.6h-12.1c-1.1 0-2-.9-2-2s.9-2 2-2H.9c1.1 0 2 .9 2 2s-.9 2-2 2z"/></g></g><g id="XMLID_164_" class="st1"><path id="XMLID_369_" class="st5" d="M479.4 1140.2c0 1.9-1.5 3.4-3.4 3.4s-3.4-1.5-3.4-3.4 1.5-3.4 3.4-3.4c1.9-.1 3.4 1.5 3.4 3.4z"/></g><g id="XMLID_163_" class="st1"><path id="XMLID_368_" class="st5" d="M371.8 923.9c0 1.4-1.2 2.6-2.6 2.6-1.4 0-2.6-1.2-2.6-2.6s1.2-2.6 2.6-2.6c1.4 0 2.6 1.1 2.6 2.6z"/></g><g id="XMLID_160_" class="st1"><circle id="XMLID_364_" class="st5" cx="510.1" cy="1044.8" r="4.5"/></g><g id="XMLID_343_"><path id="XMLID_358_" class="st5" d="M482.7 1063.7h-94.4c-1.1 0-2-.9-2-2s.9-2 2-2h94.4c1.1 0 2 .9 2 2s-.9 2-2 2z"/></g><g id="XMLID_372_"><path id="XMLID_353_" class="st5" d="M342.3 1001.8h-67.9c-1.1 0-2-.9-2-2s.9-2 2-2h67.9c1.1 0 2 .9 2 2 0 1.2-.9 2-2 2z"/></g><g id="XMLID_373_"><path id="XMLID_309_" class="st5" d="M300.6 980.9h-80.3c-1.1 0-2-.9-2-2s.9-2 2-2h80.3c1.1 0 2 .9 2 2-.1 1.1-1 2-2 2z"/></g><g id="XMLID_416_"><path id="XMLID_298_" class="st5" d="M70.3 1020.1H11.4c-1.1 0-2-.9-2-2s.9-2 2-2h58.9c1.1 0 2 .9 2 2s-.9 2-2 2z"/></g><g id="XMLID_347_"><path id="XMLID_297_" class="st5" d="M212.5 980.9h-9.4c-1.1 0-2-.9-2-2s.9-2 2-2h9.4c1.1 0 2 .9 2 2-.1 1.1-1 2-2 2z"/></g><g id="XMLID_342_"><path id="XMLID_296_" class="st5" d="M377.9 1063.7h-8.6c-1.1 0-2-.9-2-2s.9-2 2-2h8.6c1.1 0 2 .9 2 2-.1 1.1-1 2-2 2z"/></g><g id="XMLID_403_"><g id="XMLID_405_"><path id="XMLID_186_" class="st5" d="M356.3 1063.7h-11.2c-1.1 0-2-.9-2-2s.9-2 2-2h11.2c1.1 0 2 .9 2 2s-.9 2-2 2z"/></g><g id="XMLID_404_"><path id="XMLID_140_" class="st5" d="M350.7 1069.3c-1.1 0-2-.9-2-2v-11.2c0-1.1.9-2 2-2s2 .9 2 2v11.2c0 1.1-.9 2-2 2z"/></g></g><g id="XMLID_135_"><g id="XMLID_137_"><path id="XMLID_113_" class="st5" d="M193 980.9h-11.2c-1.1 0-2-.9-2-2s.9-2 2-2H193c1.1 0 2 .9 2 2-.1 1.1-1 2-2 2z"/></g><g id="XMLID_136_"><path id="XMLID_88_" class="st5" d="M187.4 986.5c-1.1 0-2-.9-2-2v-11.2c0-1.1.9-2 2-2s2 .9 2 2v11.2c-.1 1.1-.9 2-2 2z"/></g></g><g id="XMLID_378_"><g id="XMLID_414_"><path id="XMLID_23_" class="st5" d="M39.1 1075.5H27.9c-1.1 0-2-.9-2-2s.9-2 2-2h11.2c1.1 0 2 .9 2 2s-.9 2-2 2z"/></g><g id="XMLID_413_"><path id="XMLID_14_" class="st5" d="M33.5 1081c-1.1 0-2-.9-2-2v-11.2c0-1.1.9-2 2-2s2 .9 2 2v11.2c0 1.2-.9 2-2 2z"/></g></g><g id="XMLID_407_"><g id="XMLID_431_"><path id="XMLID_13_" class="st5" d="M232.4 1030.8c-.5 0-1-.2-1.4-.6-.8-.8-.8-2 0-2.8l7.9-7.9c.8-.8 2-.8 2.8 0 .8.8.8 2 0 2.8l-7.9 7.9c-.4.4-.9.6-1.4.6z"/></g><g id="XMLID_408_"><path id="XMLID_12_" class="st5" d="M240.3 1030.8c-.5 0-1-.2-1.4-.6l-7.9-7.9c-.8-.8-.8-2 0-2.8.8-.8 2-.8 2.8 0l7.9 7.9c.8.8.8 2 0 2.8-.4.4-.9.6-1.4.6z"/></g></g><g id="XMLID_138_"><g id="XMLID_146_"><path id="XMLID_11_" class="st5" d="M246.7 944.1c-.5 0-1-.2-1.4-.6-.8-.8-.8-2 0-2.8l7.9-7.9c.8-.8 2-.8 2.8 0 .8.8.8 2 0 2.8l-7.9 7.9c-.4.4-.9.6-1.4.6z"/></g><g id="XMLID_139_"><path id="XMLID_10_" class="st5" d="M254.6 944.1c-.5 0-1-.2-1.4-.6l-7.9-7.9c-.8-.8-.8-2 0-2.8.8-.8 2-.8 2.8 0l7.9 7.9c.8.8.8 2 0 2.8-.4.4-.9.6-1.4.6z"/></g></g><g id="XMLID_417_"><g id="XMLID_420_"><path id="XMLID_9_" class="st5" d="M356.9 1005.8c-.5 0-1-.2-1.4-.6-.8-.8-.8-2 0-2.8l7.9-7.9c.8-.8 2-.8 2.8 0s.8 2 0 2.8l-7.9 7.9c-.4.4-.9.6-1.4.6z"/></g><g id="XMLID_418_"><path id="XMLID_8_" class="st5" d="M364.8 1005.8c-.5 0-1-.2-1.4-.6l-7.9-7.9c-.8-.8-.8-2 0-2.8.8-.8 2-.8 2.8 0l7.9 7.9c.8.8.8 2 0 2.8-.4.4-.9.6-1.4.6z"/></g></g><path class="st5" d="M14.5 1137.6l-3.1 1.8-3.1-1.8v-3.5l3.1-1.8 3.1 1.8z" id="XMLID_346_"/><path class="st5" d="M125.4 967.8l-5.6 3.2-5.5-3.2v-6.4l5.5-3.2 5.6 3.2z" id="XMLID_87_"/><path class="st5" d="M502 1137.4l-4.5 2.6-4.6-2.6v-5.3l4.6-2.6 4.5 2.6z" id="XMLID_348_"/><path class="st5" d="M414.1 1032.1l-4.5 2.6-4.6-2.6v-5.3l4.6-2.6 4.5 2.6z" id="XMLID_415_"/><circle class="st3" cx="146.3" cy="1031.6" r="22.9" id="XMLID_265_"/><g id="XMLID_155_"><path class="st9" d="M146.3 1008.7c-2.4 0-4.6.4-6.8 1l29.4 25.8c.2-1.3.4-2.5.4-3.9 0-1.5-.2-3-.4-4.5l-20.9-18.4c-.6.1-1.2 0-1.7 0z" id="XMLID_176_"/><path class="st9" d="M134.2 1012.2c-2.9 1.8-5.4 4.3-7.3 7.2l34.3 29.6c2.6-2.2 4.7-5 6.1-8.2l-33.1-28.6z" id="XMLID_174_"/></g><path class="st10" d="M187.2 1087.9H151c-.1 0-.2.1-.2.2v106.5h36.6v-106.5c-.1-.1-.1-.2-.2-.2z" id="XMLID_154_"/><path class="st3" d="M180 1088.3l15.3-31.7s.1-14.7-.3-15.7l-10.9-27.2c-1 .4-1.9 2.3-2.6 4.2-1 2.7-.9 5.6.2 8.3l6.4 15.8c-.3 1.2-1.1 9.8-1.1 9.8l-13.3 14.2h-5.4l11-15.3c3.7-4.1-3.3-8.6-6.6-4.2l-13.8 14.8c-1 1-1.9 3-2.1 4.4v22.7H180z" id="XMLID_255_"/><path class="st2" d="M141.7 1087.9h-36.2c-.1 0-.2.1-.2.2v106.5h36.6v-106.5c-.1-.1-.1-.2-.2-.2z" id="XMLID_151_"/><path class="st3" d="M135.6 1088.3v-22.7c-.2-1.4-1.1-3.3-2.1-4.4l-13.8-14.8c-3.3-4.3-10.4.2-6.6 4.2l11 15.3h-5.4l-13.3-14.2s-.8-8.6-1.1-9.8l6.4-15.8c1.1-2.7 1.1-5.6.2-8.3-.7-1.9-1.7-3.8-2.6-4.2l-11 27.4c-.4 1-.3 15.7-.3 15.7l15.3 31.7h23.3z" id="XMLID_150_"/><g id="XMLID_3_"><path id="XMLID_1104_" class="st5" d="M189.1 1194.6h-3.9v-104.4h-32.6v104.4h-3.9v-108.1l2.1-.2h3.9v-21c.2-1.8 1.3-4.1 2.6-5.4l13.8-14.8c1.3-1.8 3.6-2.7 5.9-2.3 2.3.4 4.2 1.9 4.9 3.9.6 1.8.2 3.8-1.3 5.4l-8.6 12h.7L185 1051c.2-2.2.7-6.8 1-8.7l-6.1-15.2c-1.3-3.1-1.3-6.6-.2-9.7 1.4-3.9 2.8-4.9 3.7-5.3l1.9-.9 11.7 29.2c.2.4.6 1.3.5 16.4v.4l-14.2 29.3h5.9l.2 2.1v106zm-30.6-108.2h20.1l14.6-30.2c0-6.4 0-13.4-.2-14.6l-9.6-23.8c-.1.2-.2.5-.3.8-.8 2.2-.8 4.7.1 6.9l6.6 16.4-.2.6c-.2.7-.7 5.4-1.1 9.5l-.1.7-14.3 15.3H164l13.3-18.4c.9-1 .7-1.4.6-1.6-.2-.6-1-1.1-1.8-1.3-.6-.1-1.6 0-2.3 1l-14 14.9c-.7.7-1.4 2.2-1.5 3.2l.2 20.6zm-14.9 108.2h-3.9v-104.4H107v104.4h-3.9v-108.1l2.1-.2h3.9L95 1057.1v-.4c-.1-15.1.3-16 .5-16.5l11.7-29.1 1.9.9c.9.4 2.2 1.4 3.7 5.3 1.1 3.1 1.1 6.6-.2 9.7l-6.1 15.2c.3 1.9.8 6.5 1 8.7l12.3 13.1h.7l-8.8-12.2c-1.3-1.4-1.8-3.4-1.2-5.2.7-2 2.6-3.5 4.9-3.9 2.3-.4 4.6.5 6.1 2.5l13.7 14.6c1.2 1.3 2.3 3.7 2.6 5.4v21h5.9l.2 2.1v106.3zm-30.1-108.2h20.1v-20.7c-.1-.7-.9-2.3-1.5-3l-13.8-14.8c-.9-1.1-1.8-1.2-2.4-1.1-.8.1-1.6.7-1.8 1.3-.1.2-.2.6.5 1.4l13.4 18.6h-10.1l-14.3-15.3-.1-.7c-.4-4.1-.9-8.8-1.1-9.5l-.2-.6.2-.6 6.4-15.8c.9-2.2 1-4.7.1-6.9-.1-.3-.2-.6-.3-.8l-9.6 23.9c-.2.9-.2 8-.2 14.5l14.7 30.1zm32.7-30.1c-13.7 0-24.9-11.2-24.9-24.9s11.2-24.9 24.9-24.9 24.9 11.2 24.9 24.9-11.2 24.9-24.9 24.9zm0-45.8c-11.6 0-21 9.4-21 21s9.4 21 21 21 21-9.4 21-21c-.1-11.6-9.5-21-21-21zm2.3 35.3h-3.9v-2.6h-6v-3.9h10c1.6 0 2.8-1.3 2.8-2.8 0-1.6-1.3-2.8-2.8-2.8H144c-3.7 0-6.7-3-6.7-6.7s3-6.8 6.7-6.8h.6v-3h3.9v3h5.2v3.9H144c-1.6 0-2.8 1.3-2.8 2.8 0 1.6 1.3 2.8 2.8 2.8h4.6c3.7 0 6.7 3 6.7 6.7s-3 6.8-6.7 6.8h-.1v2.6zm15.3-12.4h-5.4v-3.9h5.4v3.9zm-29.7 0h-5.4v-3.9h5.4v3.9zm40.9-19c-1-1.6-2.2-3.1-3.4-4.6l2.9-2.6c1.4 1.6 2.7 3.3 3.9 5.1l-3.4 2.1zm-53.6-1.7l-3.2-2.3c1.1-1.5 2.3-3 3.7-4.3l2.8 2.7c-1.2 1.3-2.3 2.6-3.3 3.9zm46.7-6.2c-1.1-.9-2.2-1.7-3.4-2.4l2.1-3.3c1.3.8 2.6 1.7 3.8 2.7l-2.5 3zm-40.3-.4l-2.4-3.1c1.6-1.3 3.3-2.4 5.2-3.4l1.9 3.5c-1.7.8-3.3 1.9-4.7 3zm34.8-3.2c-4.3-2.2-8.9-3.5-13.8-3.6-5.2-.2-10.1.8-14.8 3l-1.7-3.5c5.2-2.4 10.8-3.6 16.6-3.4 5.5.2 10.7 1.6 15.5 4.1l-1.8 3.4z"/></g><g id="XMLID_796_" class="st6"><path id="XMLID_1018_" d="M187.3 1194.6h1.7v-106.1l-.2-2.1H183l3.2-6.5h-15.8c-1.6 0-3 1.3-3 3v97h-7.1l1.9 11.7c.2 1.2.8 2.3 1.6 3.2h23.5z" fill="#e5d1d3"/></g><path class="st3" d="M178.2 1081.8h155.2v106.4H178.2z" id="XMLID_272_"/><path class="st5" d="M334.2 1194.6H175c-2 0-3.8-1.5-4.1-3.5l-1.5-9.4h70.8l2.7 3.9h19.6l2.9-3.9h74.5l-1.5 9.4c-.4 2.1-2.2 3.5-4.2 3.5z" id="XMLID_233_"/><g id="XMLID_797_"><path id="XMLID_1096_" class="st5" d="M335.2 1196.6H176c-3 0-5.6-2.2-6-5.1l-1.9-11.7h74.1l2.7 3.9h17.6l2.9-3.9h77.8l-1.9 11.7c-.5 2.9-3.1 5.1-6.1 5.1zm-162.5-12.9l1.2 7.1c.2 1.1 1.1 1.8 2.2 1.8h159.2c1.1 0 2-.8 2.2-1.8l1.2-7.1h-71.3l-2.9 3.9h-21.6l-2.7-3.9h-67.5z"/></g><g id="XMLID_128_"><path id="XMLID_1095_" class="st5" d="M179.1 1181.7h-3.9v-99c0-1.6 1.3-3 3-3h23.9v3.9h-22.9v98.1z"/></g><g id="XMLID_126_"><path id="XMLID_1094_" class="st5" d="M336.1 1181.7h-3.9v-98h-30.8v-3.9h31.8c1.6 0 3 1.3 3 3v98.9z"/></g><g id="XMLID_116_"><path id="XMLID_1093_" class="st5" d="M192.9 1164.1h123.4v3.9H192.9z"/></g><path class="st3" d="M309.1 1141.6l11.6-8.2c.5-.2.5-.9 0-1.1l-11.6-8.4H193.5c-.4 0-.8.3-.8.8v16.2c0 .4.3.8.8.8h115.6z" id="XMLID_266_"/><path class="st10" d="M295.4 1062.2h26.3s3.1-18.4-9.3-18.3h-17v18.3z" id="XMLID_236_"/><path class="st3" d="M298.4 1127.1l1.1-74.1c0-2.4 0-5.7 2.2-6.5l10.8-2.2-91.9-.2c-7 0-12.7 5.7-12.7 12.7v70.3h90.5z" id="XMLID_232_"/><path class="st5" d="M320.7 1132.3l-3.1-2.3-8.5 6H193.5c-.4 0-.8-.3-.8-.8v5.5c0 .4.3.8.8.8h115.6l11.6-8.2c.4-.1.4-.8 0-1z" id="XMLID_668_"/><path class="st3" d="M276.8 1133c0 13.6-11 24.6-24.6 24.6-13.6 0-24.6-11-24.6-24.6 0-13.6 11-24.6 24.6-24.6 13.6-.1 24.6 10.9 24.6 24.6z" id="XMLID_674_"/><path d="M252.1 1108.3c-8.2 0-15.5 4-19.9 10.2 4.1-2.9 9-4.7 14.4-4.7 13.6 0 24.6 11 24.6 24.6 0 5.4-1.8 10.4-4.7 14.4 6.2-4.5 10.2-11.7 10.2-19.9.1-13.6-10.9-24.6-24.6-24.6z" fill="#f8c6ca" id="XMLID_194_"/><g id="XMLID_338_"><g id="XMLID_332_"><g id="XMLID_189_"><path id="XMLID_1092_" class="st5" d="M254.4 1145.2h-10.7v-3.9h10.7c1.8 0 3.2-1.4 3.2-3.2 0-1.8-1.4-3.2-3.2-3.2h-5c-3.9 0-7.1-3.2-7.1-7.1s3.2-7.1 7.1-7.1h10.4v3.9h-10.4c-1.8 0-3.2 1.4-3.2 3.2s1.4 3.2 3.2 3.2h5c3.9 0 7.1 3.2 7.1 7.1 0 3.9-3.2 7.1-7.1 7.1z"/></g><g id="XMLID_188_"><path id="XMLID_1091_" class="st5" d="M250.2 1117.3h3.9v5.4h-3.9z"/></g><g id="XMLID_334_"><path id="XMLID_1090_" class="st5" d="M250.2 1143.2h3.9v5h-3.9z"/></g></g><g id="XMLID_147_"><path id="XMLID_1087_" class="st5" d="M251.7 1159.3c-14.7 0-26.6-11.9-26.6-26.6 0-14.7 11.9-26.6 26.6-26.6 14.7 0 26.6 11.9 26.6 26.6 0 14.7-11.9 26.6-26.6 26.6zm0-49.2c-12.5 0-22.7 10.2-22.7 22.7s10.2 22.7 22.7 22.7 22.7-10.2 22.7-22.7c0-12.6-10.2-22.7-22.7-22.7z"/></g><g id="XMLID_328_"><path id="XMLID_1086_" class="st5" d="M232.9 1130.8h5.8v3.9h-5.8z"/></g><g id="XMLID_300_"><path id="XMLID_1085_" class="st5" d="M264.8 1130.8h5.8v3.9h-5.8z"/></g></g><g id="XMLID_491_"><path id="XMLID_1084_" class="st5" d="M321.7 1064.1h-18v-3.9H320c.3-3.4.2-9.2-2.4-12.3-1.2-1.4-2.8-2.1-5.2-2.1v-3.9c3.4-.1 6.2 1.1 8.2 3.5 4.9 5.8 3.1 16.6 3.1 17.1l-.3 1.6h-1.7z"/></g><g id="XMLID_132_"><path id="XMLID_1083_" class="st5" d="M209.8 1118.4h-3.9v-62c0-8.1 6.6-14.6 14.6-14.6h92.2v3.9h-92.2c-5.9 0-10.7 4.8-10.7 10.7v62z"/></g><g id="XMLID_107_"><path id="XMLID_1082_" class="st5" d="M300.2 1118.4h-3.9v-64.2c0-6.8 5.5-12.3 12.3-12.3h5.1v3.9h-5.1c-4.6 0-8.4 3.8-8.4 8.4v64.2z"/></g><g id="XMLID_106_"><path id="XMLID_1081_" class="st5" d="M215.7 1064.4h71.7v3.9h-71.7z"/></g><g id="XMLID_493_"><path id="XMLID_1080_" class="st5" d="M215.7 1079.5h71.7v3.9h-71.7z"/></g><g id="XMLID_103_"><path id="XMLID_1079_" class="st5" d="M215.7 1094.6h71.7v3.9h-71.7z"/></g><g id="XMLID_321_"><g id="XMLID_101_"><path id="XMLID_1078_" class="st5" d="M309.4 1143.6h-26.5v-3.9h25.3l9.6-6.8-9.6-7h-25.3v-3.9h26.5l12 8.7c.8.5 1.2 1.3 1.2 2.2 0 .9-.5 1.7-1.3 2.2l-11.9 8.5z"/></g><g id="XMLID_100_"><path id="XMLID_1077_" class="st5" d="M220.9 1143.6h-27.7c-1.5 0-2.7-1.2-2.7-2.7v-16.2c0-1.5 1.2-2.7 2.7-2.7h28.7v3.9h-27.5v13.8h26.5v3.9z"/></g><g id="XMLID_326_"><path id="XMLID_1076_" class="st5" d="M202.2 1123.3h3.9v18.8h-3.9z"/></g><g id="XMLID_72_"><path id="XMLID_1075_" class="st5" d="M304.6 1123.3h3.9v18.8h-3.9z"/></g></g><path class="st3" d="M386.9 1194.1h-59.1c-.2 0-.4-.2-.4-.4v-83.9c0-.2.2-.4.4-.4h59.1c.2 0 .4.2.4.4v83.9c0 .2-.2.4-.4.4z" id="XMLID_435_"/><path class="st5" d="M336.2 1193v-82.4c0-.6.5-1.1 1.1-1.1h-8.7c-.6 0-1.1.5-1.1 1.1v82.4c0 .6.5 1.1 1.1 1.1h8.7c-.6 0-1.1-.5-1.1-1.1z" id="XMLID_434_"/><g id="XMLID_360_"><g id="XMLID_433_"><path id="XMLID_1072_" class="st5" d="M386.3 1196.6h-57.8c-1.6 0-3-1.3-3-3V1111c0-1.6 1.3-3 3-3h57.8c1.6 0 3 1.3 3 3v82.7c0 1.6-1.4 2.9-3 2.9zm-56.9-3.9h55.9V1112h-55.9v80.7z"/></g><g id="XMLID_432_"><path id="XMLID_1071_" class="st5" d="M378.6 1137.1h-44.4v-17.6h4v13.7h40.4z"/></g><g id="XMLID_430_"><path id="XMLID_1070_" class="st5" d="M338 1150.3h4.8v3.9H338z"/></g><g id="XMLID_429_"><path id="XMLID_1069_" class="st5" d="M349.1 1150.3h4.8v3.9h-4.8z"/></g><g id="XMLID_428_"><path id="XMLID_1068_" class="st5" d="M360.3 1150.3h4.8v3.9h-4.8z"/></g><g id="XMLID_427_"><path id="XMLID_1067_" class="st5" d="M371.4 1150.3h4.8v3.9h-4.8z"/></g><g id="XMLID_426_"><path id="XMLID_1066_" class="st5" d="M338.3 1159.9h4.8v3.9h-4.8z"/></g><g id="XMLID_425_"><path id="XMLID_1065_" class="st5" d="M349.4 1159.9h4.8v3.9h-4.8z"/></g><g id="XMLID_424_"><path id="XMLID_1064_" class="st5" d="M360.5 1159.9h4.8v3.9h-4.8z"/></g><g id="XMLID_423_"><path id="XMLID_1063_" class="st5" d="M371.7 1159.9h4.8v3.9h-4.8z"/></g><g id="XMLID_422_"><path id="XMLID_1062_" class="st5" d="M338.5 1169.4h4.8v3.9h-4.8z"/></g><g id="XMLID_419_"><path id="XMLID_1061_" class="st5" d="M349.7 1169.4h4.8v3.9h-4.8z"/></g><g id="XMLID_412_"><path id="XMLID_1060_" class="st5" d="M360.8 1169.4h4.8v3.9h-4.8z"/></g><g id="XMLID_409_"><path id="XMLID_1059_" class="st5" d="M372 1169.4h4.8v3.9H372z"/></g><g id="XMLID_402_"><path id="XMLID_1058_" class="st5" d="M338.8 1179h4.8v3.9h-4.8z"/></g><g id="XMLID_379_"><path id="XMLID_1057_" class="st5" d="M350 1179h4.8v3.9H350z"/></g><g id="XMLID_370_"><path id="XMLID_1056_" class="st5" d="M361.1 1179h4.8v3.9h-4.8z"/></g><g id="XMLID_367_"><path id="XMLID_1055_" class="st5" d="M372.3 1179h4.8v3.9h-4.8z"/></g></g><path class="st10" d="M372.2 1166c0 15.8 12.8 28.6 28.6 28.6s28.6-12.8 28.6-28.6-12.8-28.6-28.6-28.6v28.6h-28.6z" id="XMLID_438_"/><path class="st3" d="M372.2 1165.8c0-16.2 13.1-29.4 29.4-29.4v29.4h-29.4z" id="XMLID_437_"/><g id="XMLID_357_"><path id="XMLID_1054_" class="st5" d="M402.6 1167.9h-30v-4h26.1V1138h3.9z"/></g><g id="XMLID_356_"><path id="XMLID_1053_" transform="rotate(-45.001 376.81 1162.201)" class="st5" d="M374.9 1157h3.9v10.4h-3.9z"/></g><g id="XMLID_355_"><path id="XMLID_1052_" transform="rotate(-45.001 383.407 1158.387)" class="st5" d="M381.4 1148.2h3.9v20.3h-3.9z"/></g><g id="XMLID_354_"><path id="XMLID_1051_" transform="rotate(-45.001 390.456 1155.021)" class="st5" d="M388.5 1141.4h3.9v27.2h-3.9z"/></g><g id="XMLID_350_"><path id="XMLID_1050_" transform="rotate(-45.001 393.516 1147.66)" class="st5" d="M391.6 1138h3.9v19.3h-3.9z"/></g><g id="XMLID_349_"><path id="XMLID_1049_" transform="rotate(-45.009 397.502 1141.303)" class="st5" d="M395.6 1136.9h3.9v8.9h-3.9z"/></g><g id="XMLID_65_"><path id="XMLID_1046_" class="st5" d="M400.7 1196.6c-16.9 0-30.7-13.8-30.7-30.7s13.8-30.7 30.7-30.7 30.7 13.8 30.7 30.7-13.8 30.7-30.7 30.7zm0-57.5c-14.8 0-26.8 12-26.8 26.8s12 26.8 26.8 26.8 26.8-12 26.8-26.8-12.1-26.8-26.8-26.8z"/></g><g id="XMLID_769_"><path id="XMLID_991_" class="st5" d="M1401.3 1052H1327c-1.1 0-2-.9-2-2s.9-2 2-2h74.2c1.1 0 2 .9 2 2 0 1.2-.9 2-1.9 2z"/></g><g id="XMLID_768_"><path id="XMLID_990_" class="st5" d="M1320.2 1052h-6.3c-1.1 0-2-.9-2-2s.9-2 2-2h6.3c1.1 0 2 .9 2 2-.1 1.2-1 2-2 2z"/></g><g id="XMLID_765_"><g id="XMLID_767_"><path id="XMLID_989_" class="st5" d="M1303.4 1052h-11.1c-1.1 0-2-.9-2-2s.9-2 2-2h11.1c1.1 0 2 .9 2 2 0 1.2-.9 2-2 2z"/></g><g id="XMLID_766_"><path id="XMLID_988_" class="st5" d="M1297.8 1057.6c-1.1 0-2-.9-2-2v-11.1c0-1.1.9-2 2-2s2 .9 2 2v11.1c0 1.1-.9 2-2 2z"/></g></g><g id="XMLID_762_"><g id="XMLID_764_"><path id="XMLID_987_" class="st5" d="M1121.9 977.7h-11.1c-1.1 0-2-.9-2-2s.9-2 2-2h11.1c1.1 0 2 .9 2 2-.1 1.2-.9 2-2 2z"/></g><g id="XMLID_763_"><path id="XMLID_986_" class="st5" d="M1116.3 983.3c-1.1 0-2-.9-2-2v-11.1c0-1.1.9-2 2-2s2 .9 2 2v11.1c0 1.1-.9 2-2 2z"/></g></g><g id="XMLID_70_"><g id="XMLID_312_"><path id="XMLID_985_" class="st5" d="M1401.8 1126.1h-11.1c-1.1 0-2-.9-2-2s.9-2 2-2h11.1c1.1 0 2 .9 2 2-.1 1.1-.9 2-2 2z"/></g><g id="XMLID_71_"><path id="XMLID_984_" class="st5" d="M1396.2 1131.6c-1.1 0-2-.9-2-2v-11.1c0-1.1.9-2 2-2s2 .9 2 2v11.1c0 1.2-.9 2-2 2z"/></g></g><g id="XMLID_759_"><g id="XMLID_761_"><path id="XMLID_983_" class="st5" d="M1239 1004.9c-.5 0-1-.2-1.4-.6l-7.9-7.9c-.8-.8-.8-2 0-2.8.8-.8 2-.8 2.8 0l7.9 7.9c.8.8.8 2 0 2.8-.4.4-.9.6-1.4.6z"/></g><g id="XMLID_760_"><path id="XMLID_982_" class="st5" d="M1231.1 1004.9c-.5 0-1-.2-1.4-.6-.8-.8-.8-2 0-2.8l7.9-7.9c.8-.8 2-.8 2.8 0 .8.8.8 2 0 2.8l-7.9 7.9c-.4.4-.9.6-1.4.6z"/></g></g><g id="XMLID_754_"><g id="XMLID_758_"><path id="XMLID_981_" class="st5" d="M1010 1016.4c-.5 0-1-.2-1.4-.6-.8-.8-.8-2 0-2.8l7.9-7.9c.8-.8 2-.8 2.8 0 .8.8.8 2 0 2.8l-7.9 7.9c-.4.4-.9.6-1.4.6z"/></g><g id="XMLID_757_"><path id="XMLID_980_" class="st5" d="M1017.9 1016.4c-.5 0-1-.2-1.4-.6l-7.9-7.9c-.8-.8-.8-2 0-2.8.8-.8 2-.8 2.8 0l7.9 7.9c.8.8.8 2 0 2.8-.4.4-.9.6-1.4.6z"/></g></g><g id="XMLID_751_"><g id="XMLID_753_"><path id="XMLID_979_" class="st5" d="M1334.4 954.1c-.5 0-1-.2-1.4-.6-.8-.8-.8-2 0-2.8l7.9-7.9c.8-.8 2-.8 2.8 0 .8.8.8 2 0 2.8l-7.9 7.9c-.4.4-.9.6-1.4.6z"/></g><g id="XMLID_752_"><path id="XMLID_978_" class="st5" d="M1342.3 954.1c-.5 0-1-.2-1.4-.6l-7.9-7.9c-.8-.8-.8-2 0-2.8.8-.8 2-.8 2.8 0l7.9 7.9c.8.8.8 2 0 2.8-.4.4-.9.6-1.4.6z"/></g></g><g id="XMLID_18_"><g id="XMLID_22_"><path id="XMLID_977_" class="st5" d="M1369.2 1028.4c-.5 0-1-.2-1.4-.6-.8-.8-.8-2 0-2.8l7.9-7.9c.8-.8 2-.8 2.8 0 .8.8.8 2 0 2.8l-7.9 7.9c-.4.4-.9.6-1.4.6z"/></g><g id="XMLID_21_"><path id="XMLID_976_" class="st5" d="M1377.1 1028.4c-.5 0-1-.2-1.4-.6l-7.9-7.9c-.8-.8-.8-2 0-2.8.8-.8 2-.8 2.8 0l7.9 7.9c.8.8.8 2 0 2.8-.4.4-.9.6-1.4.6z"/></g></g><g id="XMLID_74_"><g id="XMLID_152_"><path id="XMLID_975_" class="st5" d="M915 1045.2c-.5 0-1-.2-1.4-.6-.8-.8-.8-2 0-2.8l7.9-7.9c.8-.8 2-.8 2.8 0 .8.8.8 2 0 2.8l-7.9 7.9c-.4.4-.9.6-1.4.6z"/></g><g id="XMLID_130_"><path id="XMLID_974_" class="st5" d="M922.9 1045.2c-.5 0-1-.2-1.4-.6l-7.9-7.9c-.8-.8-.8-2 0-2.8.8-.8 2-.8 2.8 0l7.9 7.9c.8.8.8 2 0 2.8-.4.4-.9.6-1.4.6z"/></g></g><g id="XMLID_750_"><path id="XMLID_973_" class="st5" d="M989.7 1012.5h-66.6c-1.1 0-2-.9-2-2s.9-2 2-2h66.6c1.1 0 2 .9 2 2-.1 1.1-.9 2-2 2z"/></g><g id="XMLID_749_"><path id="XMLID_972_" class="st5" d="M1074.3 977.7h-82.6c-1.1 0-2-.9-2-2s.9-2 2-2h82.6c1.1 0 2 .9 2 2-.1 1.2-.9 2-2 2z"/></g><g id="XMLID_745_"><path id="XMLID_971_" class="st5" d="M1327.8 1001.9h-80.6c-1.1 0-2-.9-2-2s.9-2 2-2h80.6c1.1 0 2 .9 2 2-.1 1.1-.9 2-2 2z"/></g><g id="XMLID_627_"><path id="XMLID_970_" class="st5" d="M1097.3 977.7h-12.6c-1.1 0-2-.9-2-2s.9-2 2-2h12.6c1.1 0 2 .9 2 2-.1 1.2-1 2-2 2z"/></g><path class="st5" d="M1072.7 937.1l4.9-2.8 5 2.8v5.7l-5 2.9-4.9-2.9z" id="XMLID_626_"/><path class="st5" d="M914 1145.3l5-2.8 4.9 2.8v5.8l-4.9 2.8-5-2.8z" id="XMLID_625_"/><path class="st5" d="M1289.4 1076.1l5-2.9 4.9 2.9v5.7l-4.9 2.9-5-2.9z" id="XMLID_624_"/><path class="st5" d="M1240.4 948.8l6.7-3.9 6.6 3.9v7.7l-6.6 3.8-6.7-3.8z" id="XMLID_622_"/><g id="XMLID_237_"><path class="st3" d="M971.7 1050.1c-19 0-34.3 15.4-34.3 34.3 0 19 15.4 34.3 34.3 34.3 19 0 34.3-15.4 34.3-34.3s-15.4-34.3-34.3-34.3zm0 60.3c-14.3 0-25.9-11.6-25.9-25.9 0-14.3 11.6-25.9 25.9-25.9 14.3 0 25.9 11.6 25.9 25.9 0 14.2-11.6 25.9-25.9 25.9z" id="XMLID_245_"/><path class="st4" d="M970.8 1125.6h8.5v71.1h-8.5z" id="XMLID_244_"/><g id="XMLID_243_"><path id="XMLID_967_" class="st5" d="M981.3 1198.7h-12.4v-75h12.4v75zm-8.6-3.9h4.6v-67.2h-4.6v67.2z"/></g><g id="XMLID_242_"><path id="XMLID_966_" class="st5" d="M973.1 1117.4h3.9v6.8h-3.9z"/></g><g id="XMLID_241_"><path id="XMLID_965_" class="st5" d="M971.7 1120.7c-9.3 0-18.6-3.5-25.7-10.6-14.1-14.2-14.1-37.2 0-51.3 14.1-14.1 37.2-14.2 51.3 0 1.9 1.9 3.6 4 5 6.3l-3.3 2.1c-1.3-2-2.8-3.9-4.5-5.6-12.6-12.6-33.2-12.6-45.8 0-12.6 12.6-12.6 33.2 0 45.8 12.6 12.6 33.2 12.6 45.8 0 8.3-8.3 11.5-20.5 8.2-31.8l3.8-1.1c3.6 12.7.1 26.3-9.2 35.6-7 7.1-16.3 10.6-25.6 10.6z"/></g><g id="XMLID_240_"><path id="XMLID_964_" class="st5" d="M943.1 1104.3l-2.8-2.7 27.4-27.7 14.6 14.6 33.1-32.9 2.8 2.8-35.9 35.6-14.6-14.6z"/></g><g id="XMLID_239_"><path id="XMLID_963_" class="st5" d="M1020.5 1062.4h-3.9v-5.2h-5.2v-3.9h9.1z"/></g><g id="XMLID_238_"><path id="XMLID_951_" class="st5" d="M950.8 1129.2c-2.5-1.1-4.8-2.5-7.1-4l2.2-3.2c2.1 1.4 4.2 2.7 6.5 3.7l-1.6 3.5zm-13.4-9.1l-.7-.7c-1.7-1.7-3.3-3.5-4.7-5.4l3.1-2.3c1.3 1.8 2.8 3.4 4.3 5l.6.6-2.6 2.8zm-9.7-13c-1.2-2.4-2.3-4.9-3.1-7.5l3.7-1.2c.8 2.4 1.7 4.7 2.8 6.9l-3.4 1.8zm-4.9-15.5c-.3-2.3-.5-4.5-.5-6.8v-1.3l3.9.1v1.2c0 2.1.1 4.2.4 6.3l-3.8.5zm4.3-15.5l-3.8-.7c.5-2.7 1.3-5.3 2.2-7.8l3.7 1.4c-1 2.3-1.6 4.7-2.1 7.1zm5.2-13.9l-3.4-2c1.4-2.3 2.9-4.6 4.7-6.7l3 2.5c-1.6 1.9-3 4-4.3 6.2zm70.9-9.3c-1.8-1.8-3.7-3.4-5.7-4.8l2.3-3.2c2.2 1.6 4.3 3.3 6.2 5.3l-2.8 2.7zm-61.3-2.2l-2.6-3c2.1-1.8 4.3-3.4 6.6-4.8l2 3.3c-2.1 1.4-4.2 2.8-6 4.5zm49.1-6.5c-2.2-1.1-4.6-2-7-2.7l1.1-3.8c2.6.8 5.2 1.8 7.6 2.9l-1.7 3.6zm-36.4-1.3l-1.4-3.6c2.5-1 5.1-1.8 7.8-2.4l.8 3.8c-2.5.6-4.9 1.3-7.2 2.2zm22.1-2.9c-2.5-.3-5-.4-7.5-.3l-.2-3.9c2.7-.1 5.4 0 8.1.3l-.4 3.9z"/></g></g><path class="st3" d="M1282.6 1104.6l-41.4-41.4c-.2-.2-.4-.2-.6-.2-.2 0-.4 0-.6.2l-41.4 41.4c-.4.4-.1 1.2.5 1.2h18.3v91h46.5v-91h18.3c.5-.1.8-.8.4-1.2z" id="XMLID_656_"/><path class="st8" d="M1198.5 1104.6c-.4.4-.1 1.2.5 1.2h18.3v91h14.7v-125.6l-33.5 33.4z" id="XMLID_655_"/><path class="st4" d="M1239.9 1034.5l-57.5-57.5c-.2-.2-.5-.3-.8-.2-.3 0-.6 0-.8.2l-57.5 57.5c-.6.6-.2 1.6.7 1.6h25.4V1195h64.5v-158.9h25.4c.8 0 1.2-1 .6-1.6z" id="XMLID_654_"/><path class="st13" d="M1239.9 1034.5l-57.5-57.5c-.2-.2-.5-.3-.8-.2-.3 0-.6 0-.8.2l-7.7 7.7 2.5 2.3c13.4 12.2 21.1 29.5 21.3 47.6V1195h17v-158.9h19.6l-.1-.1h5.8c.9.1 1.3-.9.7-1.5z" id="XMLID_657_"/><g id="XMLID_693_" class="st6"><path id="XMLID_912_" class="st5" d="M1149.4 1070.3h19.7v124.8h-19.7z"/></g><path class="st13" d="M1106.6 1033.7l-44.3-19c-.5-.2-1.1.2-1.1.7v181.3h45.8v-162.3c.1-.3-.1-.6-.4-.7z" id="XMLID_652_"/><path class="st4" d="M1106.8 1033.7l-25.6-11.2c-.3-.2-.6.2-.6.7v173.5h26.5v-162.3c0-.3-.1-.6-.3-.7z" id="XMLID_658_"/><path class="st4" d="M1106.6 1033.7l-44.3-19c-.5-.2-1.1.2-1.1.7v36.6h45.8v-17.6c.1-.3-.1-.6-.4-.7z" id="XMLID_609_"/><g id="XMLID_639_"><path id="XMLID_949_" class="st5" d="M1108.4 1196.7h-3.9v-161.6l-41.9-18v179.5h-3.9v-181.3c0-.9.5-1.8 1.2-2.3.8-.5 1.7-.6 2.6-.2l44.3 19c1 .4 1.6 1.4 1.6 2.5v162.4z"/></g><g id="XMLID_635_"><path id="XMLID_948_" class="st5" d="M1061.9 1050.8h44.6v3.9h-44.6z"/></g><g id="XMLID_632_"><path id="XMLID_947_" class="st5" d="M1078.3 1052.7h3.9v144h-3.9z"/></g><g id="XMLID_614_"><path id="XMLID_930_" class="st5" d="M1214.2 1080.7h-3.9v-47.4h24.5l-54.2-54.2-54.2 54.2h24.5v41.2h-3.9v-37.3h-23c-1.2 0-2.2-.7-2.7-1.8s-.2-2.3.6-3.2l56.6-56.6c1.1-1.1 3-1.1 4.1 0l56.6 56.6c.8.8 1.1 2.1.6 3.2-.4 1.1-1.5 1.8-2.7 1.8h-23v43.5z"/></g><g id="XMLID_613_"><path id="XMLID_929_" class="st5" d="M1265.1 1194.1h-3.9v-89.2h17.4l-38.9-38.9-20.3 20.4-2.8-2.8 21.2-21.3c1-1 2.8-1 3.8 0l41.9 41.9c.8.8 1 1.9.6 2.9s-1.4 1.6-2.4 1.6h-16.6v85.4z"/></g><g id="XMLID_612_"><path id="XMLID_914_" class="st5" d="M1214.2 1189.2h-3.9v-7.8h3.9v7.8zm0-15.7h-3.9v-7.8h3.9v7.8zm0-15.6h-3.9v-7.8h3.9v7.8zm0-15.7h-3.9v-7.8h3.9v7.8zm0-15.6h-3.9v-7.8h3.9v7.8zm0-15.7h-3.9v-7.8h3.9v7.8zm0-15.6h-3.9v-7.8h3.9v7.8z"/></g><g id="XMLID_15_"><path class="st4" d="M1340.7 1124.3h-108.4c-3.3 0-6.1 2.7-6.1 6.1v59.6c0 3.3 2.7 6.1 6.1 6.1h108.5c3.3 0 6.1-2.7 6.1-6.1v-59.6c-.1-3.3-2.8-6.1-6.2-6.1z" id="XMLID_141_"/><path class="st3" d="M1328.7 1124.3h-84.2v71.7h84.2z" id="XMLID_180_"/><g id="XMLID_129_" class="st6"><path id="XMLID_774_" class="st5" d="M1340.7 1187.9h-108.5c-3.3 0-6.1-2.7-6.1-6.1v8.1c0 3.3 2.7 6.1 6.1 6.1h108.5c3.3 0 6.1-2.7 6.1-6.1v-8.1c0 3.3-2.7 6.1-6.1 6.1z"/></g><g id="XMLID_115_"><path id="XMLID_911_" class="st5" d="M1340.7 1198.7h-108.5c-4.4 0-8-3.6-8-8v-59.6c0-4.4 3.6-8 8-8h51.7v3.9h-51.7c-2.3 0-4.1 1.8-4.1 4.1v59.6c0 2.3 1.8 4.1 4.1 4.1h108.5c2.3 0 4.1-1.8 4.1-4.1v-59.6c0-2.3-1.8-4.1-4.1-4.1h-18.4v-3.9h18.4c4.4 0 8 3.6 8 8v59.6c0 4.4-3.6 8-8 8z"/></g><g id="XMLID_112_"><path id="XMLID_910_" class="st5" d="M1242.5 1125.1h3.9v71.7h-3.9z"/></g><g id="XMLID_111_"><path id="XMLID_909_" class="st5" d="M1233.8 1149.4h3.9v23h-3.9z"/></g><g id="XMLID_109_"><path id="XMLID_908_" class="st5" d="M1326.8 1125.1h3.9v71.7h-3.9z"/></g><g id="XMLID_108_"><path id="XMLID_907_" class="st5" d="M1245.9 1149.9l-2.8-2.8 20.6-20.6 11.4 11.4 28.3-28.4 8.6 8.7 27.5-27.3 2.7 2.8-30.2 30-8.6-8.6-28.3 28.3-11.4-11.3z"/></g><g id="XMLID_96_"><path id="XMLID_904_" class="st5" d="M1342.8 1103.1h-3.9v-8.9h-9.1v-3.9h13z"/></g><g id="XMLID_94_"><path id="XMLID_903_" class="st5" d="M1254 1136.6h3.9v41.1h-3.9z"/></g><g id="XMLID_90_"><path id="XMLID_902_" class="st5" d="M1264.2 1131.2h3.9v46.5h-3.9z"/></g><g id="XMLID_86_"><path id="XMLID_901_" class="st5" d="M1274.4 1139.3h3.9v38.4h-3.9z"/></g><g id="XMLID_68_"><path id="XMLID_900_" class="st5" d="M1284.6 1128.5h3.9v49.2h-3.9z"/></g><g id="XMLID_67_"><path id="XMLID_899_" class="st5" d="M1294.8 1119h3.9v58.7h-3.9z"/></g><g id="XMLID_57_"><path id="XMLID_898_" class="st5" d="M1304.9 1115.7h3.9v62h-3.9z"/></g><g id="XMLID_56_"><path id="XMLID_897_" class="st5" d="M1315.1 1115.6h3.9v62.1h-3.9z"/></g><g id="XMLID_32_"><path id="XMLID_896_" class="st5" d="M1254 1181.8h3.9v5.2h-3.9z"/></g><g id="XMLID_31_"><path id="XMLID_895_" class="st5" d="M1264.2 1181.8h3.9v5.2h-3.9z"/></g><g id="XMLID_30_"><path id="XMLID_894_" class="st5" d="M1274.4 1181.8h3.9v5.2h-3.9z"/></g><g id="XMLID_29_"><path id="XMLID_893_" class="st5" d="M1284.6 1181.8h3.9v5.2h-3.9z"/></g><g id="XMLID_28_"><path id="XMLID_892_" class="st5" d="M1294.8 1181.8h3.9v5.2h-3.9z"/></g><g id="XMLID_26_"><path id="XMLID_891_" class="st5" d="M1304.9 1181.8h3.9v5.2h-3.9z"/></g><g id="XMLID_19_"><path id="XMLID_890_" class="st5" d="M1315.1 1181.8h3.9v5.2h-3.9z"/></g></g><g id="XMLID_16_"><path class="st3" d="M1007.4 1141.6h-17.9c-.3 0-.6.3-.6.6v54.6h19.1v-54.6c0-.4-.3-.6-.6-.6z" id="XMLID_651_"/><path class="st14" d="M1007.4 1141.6h-8.2c.3 0 .6.3.6.6v54.6h8.2v-54.6c0-.4-.3-.6-.6-.6z" id="XMLID_645_"/><path class="st3" d="M1036.3 1109.8h-17.9c-.3 0-.6.3-.6.6v86.3h19.1v-86.3c0-.3-.2-.6-.6-.6z" id="XMLID_644_"/><path class="st14" d="M1036.3 1109.8h-8.2c.3 0 .6.3.6.6v86.3h8.2v-86.3c0-.3-.2-.6-.6-.6z" id="XMLID_643_"/><path class="st3" d="M1065.3 1090.9h-17.9c-.3 0-.6.3-.6.6v105.2h19.1v-105.2c0-.3-.3-.6-.6-.6z" id="XMLID_642_"/><path class="st14" d="M1065.3 1090.9h-8.2c.3 0 .6.3.6.6v105.2h8.2v-105.2c0-.3-.3-.6-.6-.6z" id="XMLID_640_"/><g id="XMLID_607_"><path id="XMLID_889_" class="st5" d="M1010 1196.7h-3.9v-53.2h-15.2v53.2H987v-54.6c0-1.4 1.1-2.5 2.5-2.5h17.9c1.4 0 2.5 1.1 2.5 2.5v54.6z"/></g><g id="XMLID_606_"><path id="XMLID_888_" class="st5" d="M1038.9 1196.7h-3.9v-84.9h-15.2v84.9h-3.9v-86.3c0-1.4 1.1-2.5 2.5-2.5h17.9c1.4 0 2.5 1.1 2.5 2.5v86.3z"/></g><g id="XMLID_488_"><path id="XMLID_887_" class="st5" d="M1067.8 1196.7h-3.9v-103.8h-15.2v103.8h-3.9v-105.2c0-1.4 1.1-2.5 2.5-2.5h17.9c1.4 0 2.5 1.1 2.5 2.5v105.2z"/></g></g><g id="XMLID_711_"><path class="st3" d="M1561.4 1068.4H1493c-.4 0-.6.3-.6.6v126.5h94.2v-102l-25.2-25.1z" id="XMLID_778_"/><path class="st4" d="M1560.1 1068.9v24.4c0 .4.3.8.8.8h24.4l-25.2-25.2z" id="XMLID_777_"/><g id="XMLID_776_"><path id="XMLID_709_" class="st5" d="M1587.2 1196.1h-3.9v-101.2l-24-24H1493v125.2h-3.9v-126.5c0-1.4 1.2-2.6 2.6-2.6h69.2l26.3 26.3v102.8z"/></g><g id="XMLID_742_"><path id="XMLID_707_" class="st5" d="M1585.3 1096h-24.4c-1.5 0-2.7-1.2-2.7-2.7v-24.4h3.9v23.2h23.2v3.9z"/></g><path class="st4" d="M1505.3 1116.6h18.2v75.2h-18.2z" id="XMLID_741_"/><g id="XMLID_740_"><path id="XMLID_698_" class="st5" d="M1572.4 1193.7h-69.1v-79.1h69.1v79.1zm-65.2-3.9h61.3v-71.3h-61.3v71.3z"/></g><g id="XMLID_739_"><path id="XMLID_697_" class="st5" d="M1505.3 1133.8h65.2v3.9h-65.2z"/></g><g id="XMLID_738_"><path id="XMLID_696_" class="st5" d="M1505.5 1147.6h65.2v3.9h-65.2z"/></g><g id="XMLID_720_"><path id="XMLID_695_" class="st5" d="M1505.8 1161.3h65.2v3.9h-65.2z"/></g><g id="XMLID_717_"><path id="XMLID_692_" class="st5" d="M1506.1 1175.1h65.2v3.9h-65.2z"/></g><g id="XMLID_713_"><path id="XMLID_691_" class="st5" d="M1521.5 1116.6h3.9v75.2h-3.9z"/></g><g id="XMLID_712_"><path id="XMLID_690_" class="st5" d="M1502 1097h21.5v3.9H1502z"/></g></g><g id="XMLID_602_"><path class="st4" d="M1787.3 1196.1h-122.8c-.2 0-.3-.1-.3-.3v-89.7c0-.2.1-.3.3-.3h122.8c.2 0 .3.1.3.3v89.7c0 .1-.1.3-.3.3z" id="XMLID_710_"/><path class="st5" d="M1674.5 1186.8c-.6 0-1-.5-1-1v-80.1h-8.3c-.6 0-1 .5-1 1v88.3c0 .6.5 1 1 1h121.4c.6 0 1-.5 1-1v-8.3h-113.1z" id="XMLID_708_"/><path class="st3" d="M1780.3 1120.2h-41.7c-.2 0-.3.1-.3.3v75.9c0 .2.1.3.3.3h60c.2 0 .3-.1.3-.3v-57.6l-18.6-18.6z" id="XMLID_706_"/><path class="st8" d="M1780.5 1119.9v18.4c0 .1.1.2.2.2h18.4l-18.6-18.6z" id="XMLID_705_"/><g id="XMLID_704_"><path id="XMLID_688_" class="st5" d="M1733.3 1198.7h-68.8c-1.3 0-2.3-1-2.3-2.3v-90.7c0-1.3 1-2.3 2.3-2.3h122.8c1.3 0 2.3 1 2.3 2.3v10.3h-3.9v-8.6h-119.5v87.4h67.2v3.9z"/></g><g id="XMLID_703_"><path id="XMLID_684_" class="st5" d="M1747.4 1144.1h42.4v3.9h-42.4z"/></g><g id="XMLID_702_"><path id="XMLID_683_" class="st5" d="M1747.4 1156.4h42.4v3.9h-42.4z"/></g><g id="XMLID_701_"><path id="XMLID_682_" class="st5" d="M1747.4 1168.7h42.4v3.9h-42.4z"/></g><g id="XMLID_694_"><path id="XMLID_677_" class="st5" d="M1747.4 1181h23.4v3.9h-23.4z"/></g><g id="XMLID_689_"><path id="XMLID_673_" class="st5" d="M1798.6 1198.2h-60c-1.2 0-2.2-1-2.2-2.2v-76c0-1.2 1-2.2 2.2-2.2h42.5l19.8 19.8v58.4c-.1 1.1-1.1 2.2-2.3 2.2zm-58.3-4h56.7v-55.1l-17.5-17.5h-39.2v72.6z"/></g><g id="XMLID_687_"><path id="XMLID_672_" class="st5" d="M1798.9 1140.3h-18.4c-1.2 0-2.2-1-2.2-2.2v-18.4h3.9v16.7h16.7v3.9z"/></g><g id="XMLID_605_"><path id="XMLID_671_" class="st5" d="M1698.3 1153h-14.4v-12.7h3.9v8.8h6.5v-8.8h4z"/></g><g id="XMLID_604_"><path id="XMLID_670_" class="st5" d="M1754.2 1104.7h-3.9v-16.1c0-.6-.5-1.1-1.1-1.1H1701c-.6 0-1.1.5-1.1 1.1v16.1h-3.9v-16.1c0-2.8 2.3-5 5-5h48.2c2.8 0 5 2.3 5 5v16.1z"/></g><g id="XMLID_603_"><path id="XMLID_669_" class="st5" d="M1664.2 1139.5h67.6v3.9h-67.6z"/></g></g><g id="XMLID_601_"><path id="XMLID_667_" class="st5" d="M1717.8 1024.2h-19.2c-1.1 0-2-.9-2-2s.9-2 2-2h19.2c1.1 0 2 .9 2 2s-.9 2-2 2z"/></g><g id="XMLID_600_"><path id="XMLID_666_" class="st5" d="M1764.1 1024.2h-38.2c-1.1 0-2-.9-2-2s.9-2 2-2h38.2c1.1 0 2 .9 2 2s-1 2-2 2z"/></g><g id="XMLID_595_"><g id="XMLID_599_"><path id="XMLID_665_" class="st5" d="M1872.2 1136h-11.1c-1.1 0-2-.9-2-2s.9-2 2-2h11.1c1.1 0 2 .9 2 2s-.9 2-2 2z"/></g><g id="XMLID_596_"><path id="XMLID_664_" class="st5" d="M1866.7 1141.6c-1.1 0-2-.9-2-2v-11.1c0-1.1.9-2 2-2s2 .9 2 2v11.1c-.1 1.1-1 2-2 2z"/></g></g><g id="XMLID_592_"><g id="XMLID_594_"><path id="XMLID_663_" class="st5" d="M1691.1 1024.2H1680c-1.1 0-2-.9-2-2s.9-2 2-2h11.1c1.1 0 2 .9 2 2s-1 2-2 2z"/></g><g id="XMLID_593_"><path id="XMLID_659_" class="st5" d="M1685.5 1029.7c-1.1 0-2-.9-2-2v-11.1c0-1.1.9-2 2-2s2 .9 2 2v11.1c-.1 1.2-.9 2-2 2z"/></g></g><g id="XMLID_588_"><g id="XMLID_590_"><path id="XMLID_650_" class="st5" d="M1554.1 1042.2H1543c-1.1 0-2-.9-2-2s.9-2 2-2h11.1c1.1 0 2 .9 2 2-.1 1.1-.9 2-2 2z"/></g><g id="XMLID_589_"><path id="XMLID_649_" class="st5" d="M1548.5 1047.8c-1.1 0-2-.9-2-2v-11.1c0-1.1.9-2 2-2s2 .9 2 2v11.1c0 1.1-.9 2-2 2z"/></g></g><g id="XMLID_585_"><g id="XMLID_587_"><path id="XMLID_648_" class="st5" d="M1422.6 1069.6c-.5 0-1-.2-1.4-.6-.8-.8-.8-2 0-2.8l7.9-7.9c.8-.8 2-.8 2.8 0 .8.8.8 2 0 2.8l-7.9 7.9c-.4.4-.9.6-1.4.6z"/></g><g id="XMLID_586_"><path id="XMLID_647_" class="st5" d="M1430.5 1069.6c-.5 0-1-.2-1.4-.6l-7.9-7.9c-.8-.8-.8-2 0-2.8.8-.8 2-.8 2.8 0l7.9 7.9c.8.8.8 2 0 2.8-.4.4-.9.6-1.4.6z"/></g></g><g id="XMLID_579_"><g id="XMLID_583_"><path id="XMLID_641_" class="st5" d="M1625.2 979.7c-1.1 0-2-.9-2-2v-11.1c0-1.1.9-2 2-2s2 .9 2 2v11.1c0 1.1-.9 2-2 2z"/></g><g id="XMLID_581_"><path id="XMLID_636_" class="st5" d="M1630.8 974.1h-11.1c-1.1 0-2-.9-2-2s.9-2 2-2h11.1c1.1 0 2 .9 2 2s-.9 2-2 2z"/></g></g><g id="XMLID_574_"><g id="XMLID_578_"><path id="XMLID_634_" class="st5" d="M1519.5 983.4c-.5 0-1-.2-1.4-.6-.8-.8-.8-2 0-2.8l7.9-7.9c.8-.8 2-.8 2.8 0 .8.8.8 2 0 2.8l-7.9 7.9c-.4.4-.9.6-1.4.6z"/></g><g id="XMLID_575_"><path id="XMLID_630_" class="st5" d="M1527.4 983.4c-.5 0-1-.2-1.4-.6l-7.9-7.9c-.8-.8-.8-2 0-2.8.8-.8 2-.8 2.8 0l7.9 7.9c.8.8.8 2 0 2.8-.4.4-.9.6-1.4.6z"/></g></g><g id="XMLID_570_"><g id="XMLID_573_"><path id="XMLID_628_" class="st5" d="M1795.5 995.7c-.5 0-1-.2-1.4-.6-.8-.8-.8-2 0-2.8l7.9-7.9c.8-.8 2-.8 2.8 0 .8.8.8 2 0 2.8l-7.9 7.9c-.4.4-.9.6-1.4.6z"/></g><g id="XMLID_572_"><path id="XMLID_621_" class="st5" d="M1803.4 995.7c-.5 0-1-.2-1.4-.6l-7.9-7.9c-.8-.8-.8-2 0-2.8.8-.8 2-.8 2.8 0l7.9 7.9c.8.8.8 2 0 2.8-.4.4-.9.6-1.4.6z"/></g></g><g id="XMLID_569_"><path id="XMLID_619_" class="st5" d="M1653.3 974.1h-11.7c-1.1 0-2-.9-2-2s.9-2 2-2h11.7c1.1 0 2 .9 2 2s-.9 2-2 2z"/></g><g id="XMLID_568_"><path id="XMLID_598_" class="st5" d="M1741.1 974.1H1661c-1.1 0-2-.9-2-2s.9-2 2-2h80.1c1.1 0 2 .9 2 2s-.9 2-2 2z"/></g><g id="XMLID_567_"><path id="XMLID_597_" class="st5" d="M1506.2 1042.2h-58.3c-1.1 0-2-.9-2-2s.9-2 2-2h58.3c1.1 0 2 .9 2 2-.1 1.1-.9 2-2 2z"/></g><g id="XMLID_566_"><path id="XMLID_591_" class="st5" d="M1648.1 954.1h-167.8c-1.1 0-2-.9-2-2s.9-2 2-2h167.8c1.1 0 2 .9 2 2s-.9 2-2 2z"/></g><g id="XMLID_565_"><path id="XMLID_561_" class="st5" d="M1529.1 1042.2h-12.6c-1.1 0-2-.9-2-2s.9-2 2-2h12.6c1.1 0 2 .9 2 2s-.9 2-2 2z"/></g><path class="st5" d="M1383.2 1144.9l4.9-2.9 5 2.9v5.7l-5 2.8-4.9-2.8z" id="XMLID_554_"/><path class="st5" d="M1698.1 1058.1l4.9-2.8 5 2.8v5.7l-5 2.9-4.9-2.9z" id="XMLID_553_"/><path class="st5" d="M1768 950.6l5-2.9 4.9 2.9v5.7l-4.9 2.9-5-2.9z" id="XMLID_550_"/><path class="st5" d="M1442 1003.3l6.7-3.8 6.7 3.8v7.7l-6.7 3.9-6.7-3.9z" id="XMLID_549_"/><g id="XMLID_548_" class="st6"><path id="XMLID_503_" class="st5" d="M1704.8 1123.3l-42.6-14.5v87.6c0 .4.1.8.3 1.1h46.5v.3h3.7v-63.5c.1-4.9-3.1-9.4-7.9-11z"/></g><g id="XMLID_546_" class="st6"><path id="XMLID_43_" class="st5" d="M1587.2 1196.1v-86.9l-41.4 14.1c-4.8 1.6-8 6.1-8 11.1v61.1h45.4v.5h4z"/></g><g id="XMLID_527_"><path class="st3" d="M1697 1130.2l-49.4-16.8v-18.9h-3.2l6-3.8c5.4-2.8 8.9-8.2 9.4-14.2l1.8-22.4c.2 0 .3.1.5.1 3.2 0 5.9-2.6 5.9-5.9 0-3.1-2.4-5.5-5.4-5.8l.9-10.9c0-20.6-16.7-37.4-37.4-37.4-20.6 0-37.4 16.7-37.4 37.4l.7 8.6c-3 1.5-5.1 4.5-5.1 8.1 0 4.1 2.7 7.5 6.5 8.6l1.6 19.6c.4 6 4 11.4 9.4 14.2l5.7 3.8h-3.4v18.9l-49.4 16.8c-3.6 1.2-6 4.6-6 8.4v57.9H1703v-57.9c0-3.8-2.4-7.2-6-8.4z" id="XMLID_542_"/><path class="st8" d="M1647.6 1113.3v-18.9h-3.2l6-3.8c5.4-2.8 8.9-8.2 9.4-14.2l1.8-22.4c.2 0 .3.1.5.1 3.2 0 5.9-2.6 5.9-5.9 0-3.1-2.4-5.5-5.4-5.8l.9-10.9c0-20.6-16.7-37.4-37.4-37.4-3 0-6 .4-8.8 1.1 16.4 4 28.5 18.7 28.5 36.3 0 0-1.6 22.5-1.8 22.5l-1.8 22.4c-.4 6-2.7 11.8-8 14.6l-4.1 3.4-.5 38.8 18-19.9z" id="XMLID_541_"/><path class="st4" d="M1618.1 1150l-5.6-17.2 12.7-8.2 12.9 10.7v.1l-4.7 14.5h-15.3z" id="XMLID_540_"/><path class="st4" d="M1618.1 1150l-4.7 46.8h23.7l-4.7-46.8z" id="XMLID_539_"/><g id="XMLID_538_"><path id="XMLID_481_" class="st5" d="M1549.6 1196.8h-3.9v-57.6c0-4.7 3-8.8 7.4-10.3l48.3-16.5v-17.8h3.9v20.6l-51 17.4c-2.8 1-4.7 3.6-4.7 6.6v57.6z"/></g><g id="XMLID_537_"><path id="XMLID_454_" class="st5" d="M1705 1196.8h-3.9v-57.6c0-3-1.9-5.7-4.7-6.6l-51-17.4v-20.6h3.9v17.8l48.3 16.5c4.4 1.5 7.4 5.7 7.4 10.3v57.6z"/></g><g id="XMLID_536_"><path id="XMLID_447_" class="st5" d="M1631.8 1104.7h-13.2l-18.7-12.3c-5.9-3.1-9.8-9-10.3-15.8l-1.5-18.2c-4.1-1.2-7.3-4.5-8.3-8.8l-.4-1.5c-.6-2.6 0-5.3 1.6-7.4 1.4-1.7 3.3-2.8 5.4-3.2l-.5-6c0-22 17.7-39.7 39.5-39.7s39.5 17.7 39.5 39.5l-.5 6.6c1.7.6 3.3 1.7 4.3 3.2 1.4 2 1.9 4.6 1.3 7l-.4 1.5c-.9 3.7-3.5 6.7-6.9 8.2l-1.5 18.8c-.5 6.8-4.4 12.7-10.5 15.9l-18.9 12.2zm-12.1-3.9h10.9l18.4-11.7c5-2.6 8.1-7.4 8.5-12.8l1.7-21.3 1.3-.4c2.7-.9 4.9-3.1 5.5-5.9l.4-1.5c.3-1.3.1-2.7-.7-3.8-.8-1.1-2-1.9-3.4-2l-1.9-.2.8-10c0-19.5-16-35.5-35.6-35.5s-35.6 16-35.6 35.6l.8 10h-2.8c-1.5 0-2.8.7-3.7 1.8-.9 1.2-1.2 2.6-.9 4.1l.4 1.5c.8 3.2 3.4 5.6 6.6 6.2l1.5.3 1.7 21.2c.4 5.5 3.5 10.2 8.4 12.7l17.7 11.7z"/></g><g id="XMLID_535_"><path id="XMLID_410_" class="st5" d="M1634.2 1149.7H1616l-5.6-17.2 1.2-1 13.4-9.7 1.3.8 13.4 9.7-.4 1.5-5.1 15.9zm-15.3-3.9h12.5l3.8-11.8-10.1-7.3-10.1 7.3 3.9 11.8z"/></g><g id="XMLID_534_"><path id="XMLID_406_" transform="rotate(-84.472 1615.067 1172.248) scale(.99995)" class="st5" d="M1590.4 1170.3h49.3v3.9h-49.3z"/></g><g id="XMLID_533_"><path id="XMLID_401_" transform="rotate(-5.528 1633.98 1172.17) scale(.99995)" class="st5" d="M1632.1 1147.6h3.9v49.3h-3.9z"/></g><g id="XMLID_532_"><path id="XMLID_400_" transform="rotate(-41.375 1610.524 1121.754)" class="st5" d="M1608.4 1111.1h3.9v21.3h-3.9z"/></g><g id="XMLID_531_"><path id="XMLID_399_" transform="rotate(-48.645 1641.076 1121.78)" class="st5" d="M1630.4 1119.8h21.3v3.9h-21.3z"/></g><g id="XMLID_530_"><path id="XMLID_398_" class="st5" d="M1591 1194.1h-8.1v-3.9h6.3l4.9-6v-15.1h-24.4v-3.9h28.3v20.4z"/></g><g id="XMLID_528_"><path id="XMLID_397_" class="st5" d="M1585.6 1153.7h3.9v13.4h-3.9z"/></g></g><g id="XMLID_521_"><g id="XMLID_525_"><path id="XMLID_396_" class="st5" d="M1868.4 1198.7h-480.3c-1.1 0-2-.9-2-2s.9-2 2-2h480.3c1.1 0 2 .9 2 2 0 1.2-.9 2-2 2z"/></g><g id="XMLID_523_"><path id="XMLID_395_" class="st5" d="M1882.6 1198.7h-7.1c-1.1 0-2-.9-2-2s.9-2 2-2h7.1c1.1 0 2 .9 2 2 0 1.2-.9 2-2 2z"/></g><g id="XMLID_522_"><path id="XMLID_394_" class="st5" d="M1381.1 1198.7h-12c-1.1 0-2-.9-2-2s.9-2 2-2h12c1.1 0 2 .9 2 2-.1 1.2-.9 2-2 2z"/></g></g><g id="XMLID_214_"><path class="st4" d="M1372.4 1122.9c0 17.6 14.3 31.9 31.9 31.9 17.6 0 31.9-14.3 31.9-31.9 0-17.6-14.3-31.9-31.9-31.9v31.9h-31.9z" id="XMLID_470_"/><path class="st3" d="M1372.4 1122.7c0-18 14.6-32.7 32.7-32.7v32.7h-32.7z" id="XMLID_469_"/><path class="st3" d="M1455.5 1192.8h-48.1c-.2 0-.4-.2-.4-.4v-68.3c0-.2.2-.4.4-.4h48.1c.2 0 .4.2.4.4v68.3c-.1.2-.2.4-.4.4z" id="XMLID_421_"/><path class="st2" d="M1414.2 1191.9v-67.3c0-.5.4-.9.9-.9h-7.1c-.5 0-.9.4-.9.9v67.3c0 .5.4.9.9.9h7.1c-.5 0-.9-.4-.9-.9z" id="XMLID_374_"/><g id="XMLID_230_"><g id="XMLID_319_"><path id="XMLID_315_" class="st5" d="M1454.9 1195.2H1408c-1.6 0-3-1.3-3-2.9v-67.1c0-1.6 1.3-2.9 2.9-2.9h46.8c1.6 0 2.9 1.3 2.9 2.9v67.1c.2 1.6-1.1 2.9-2.7 2.9zm-45.9-3.9h44.9v-65.2H1409v65.2z"/></g><g id="XMLID_316_"><path id="XMLID_314_" class="st5" d="M1448.7 1146.7h-36.5v-14.8h3.9v10.9h32.6z"/></g><g id="XMLID_280_"><path id="XMLID_313_" class="st5" d="M1415.6 1156.7h3.9v3.9h-3.9z"/></g><g id="XMLID_276_"><path id="XMLID_310_" class="st5" d="M1424.7 1156.7h3.9v3.9h-3.9z"/></g><g id="XMLID_275_"><path id="XMLID_294_" class="st5" d="M1433.8 1156.7h3.9v3.9h-3.9z"/></g><g id="XMLID_274_"><path id="XMLID_286_" class="st5" d="M1442.9 1156.7h3.9v3.9h-3.9z"/></g><g id="XMLID_273_"><path id="XMLID_285_" class="st5" d="M1415.8 1164.5h3.9v3.9h-3.9z"/></g><g id="XMLID_271_"><path id="XMLID_284_" class="st5" d="M1424.9 1164.5h3.9v3.9h-3.9z"/></g><g id="XMLID_263_"><path id="XMLID_281_" class="st5" d="M1434 1164.5h3.9v3.9h-3.9z"/></g><g id="XMLID_254_"><path id="XMLID_279_" class="st5" d="M1443.1 1164.5h3.9v3.9h-3.9z"/></g><g id="XMLID_252_"><path id="XMLID_278_" class="st5" d="M1416.1 1172.3h3.9v3.9h-3.9z"/></g><g id="XMLID_251_"><path id="XMLID_277_" class="st5" d="M1425.1 1172.3h3.9v3.9h-3.9z"/></g><g id="XMLID_250_"><path id="XMLID_270_" class="st5" d="M1434.2 1172.3h3.9v3.9h-3.9z"/></g><g id="XMLID_249_"><path id="XMLID_264_" class="st5" d="M1443.3 1172.3h3.9v3.9h-3.9z"/></g><g id="XMLID_248_"><path id="XMLID_257_" class="st5" d="M1416.3 1180.1h3.9v3.9h-3.9z"/></g><g id="XMLID_235_"><path id="XMLID_256_" class="st5" d="M1425.4 1180.1h3.9v3.9h-3.9z"/></g><g id="XMLID_234_"><path id="XMLID_253_" class="st5" d="M1434.5 1180.1h3.9v3.9h-3.9z"/></g><g id="XMLID_231_"><path id="XMLID_225_" class="st5" d="M1443.6 1180.1h3.9v3.9h-3.9z"/></g></g><g id="XMLID_223_"><path id="XMLID_211_" class="st5" d="M1400.8 1156.7c-17.3-1.8-30.4-16.4-30.4-33.8 0-18.8 15.3-34 34-34 16.1 0 30.1 11.4 33.3 27.2l-3.8.8c-2.9-13.9-15.3-24-29.5-24-16.6 0-30.1 13.5-30.1 30.1 0 15.5 11.6 28.3 26.9 29.9l-.4 3.8z"/></g><g id="XMLID_221_"><path id="XMLID_195_" class="st5" d="M1406.1 1124.7h-33.2v-3.9h29.3v-29.1h3.9z"/></g><g id="XMLID_220_"><path id="XMLID_192_" transform="rotate(-45.001 1377.525 1118.642)" class="st5" d="M1375.6 1112.8h3.9v11.6h-3.9z"/></g><g id="XMLID_219_"><path id="XMLID_187_" transform="rotate(-45.001 1384.893 1114.396)" class="st5" d="M1382.9 1103.1h3.9v22.6h-3.9z"/></g><g id="XMLID_218_"><path id="XMLID_185_" transform="rotate(-45.001 1392.738 1110.659)" class="st5" d="M1390.8 1095.5h3.9v30.3h-3.9z"/></g><g id="XMLID_217_"><path id="XMLID_179_" transform="rotate(-45.001 1396.212 1102.533)" class="st5" d="M1394.3 1091.7h3.9v21.5h-3.9z"/></g><g id="XMLID_216_"><path id="XMLID_178_" transform="rotate(-44.992 1400.77 1095.503)" class="st5" d="M1398.7 1090.5h3.9v9.9h-3.9z"/></g></g><g id="XMLID_198_"><path class="st8" d="M1857.9 1196.6h-62.5c-.3 0-.5-.2-.5-.5v-32.4c0-.3.2-.5.5-.5h62.5c.3 0 .5.2.5.5v32.4c0 .2-.2.5-.5.5z" id="XMLID_213_"/><path class="st3" d="M1838.2 1179.8c0 6.4-5.2 11.6-11.6 11.6-6.4 0-11.6-5.2-11.6-11.6 0-6.4 5.2-11.6 11.6-11.6 6.4 0 11.6 5.2 11.6 11.6z" id="XMLID_212_"/><g id="XMLID_207_"><g id="XMLID_210_"><path id="XMLID_177_" class="st5" d="M1827.8 1187.7h-5.8v-3.9h5.8c.5 0 .8-.4.8-.8 0-.5-.4-.8-.8-.8h-2.7c-2.6 0-4.7-2.1-4.7-4.7s2.1-4.7 4.7-4.7h5.6v3.9h-5.6c-.5 0-.8.4-.8.8s.4.8.8.8h2.7c2.6 0 4.7 2.1 4.7 4.7 0 2.5-2.1 4.7-4.7 4.7z"/></g><g id="XMLID_209_"><path id="XMLID_175_" class="st5" d="M1824.6 1171.6h3.9v2.9h-3.9z"/></g><g id="XMLID_208_"><path id="XMLID_153_" class="st5" d="M1824.6 1185.7h3.9v2.7h-3.9z"/></g></g><g id="XMLID_206_"><path id="XMLID_134_" class="st5" d="M1856.8 1198.7H1796c-1.9 0-3.4-1.5-3.4-3.4v-30.7c0-1.9 1.5-3.4 3.4-3.4h60.8c1.9 0 3.4 1.5 3.4 3.4v30.7c-.1 1.9-1.6 3.4-3.4 3.4zm-60.3-3.9h59.7v-29.6h-59.7v29.6z"/></g><g id="XMLID_205_"><path id="XMLID_131_" class="st5" d="M1794.5 1175.1v-3.9c4.4 0 7.9-3.6 7.9-7.9h3.9c.1 6.5-5.2 11.8-11.8 11.8z"/></g><g id="XMLID_204_"><path id="XMLID_105_" class="st5" d="M1858.2 1175.1c-6.5 0-11.8-5.3-11.8-11.8h3.9c0 4.4 3.6 7.9 7.9 7.9v3.9z"/></g><g id="XMLID_203_"><path id="XMLID_104_" class="st5" d="M1806.4 1196.8h-3.9c0-4.4-3.6-7.9-7.9-7.9v-3.9c6.5-.1 11.8 5.2 11.8 11.8z"/></g><g id="XMLID_202_"><path id="XMLID_102_" class="st5" d="M1850.2 1196.8h-3.9c0-6.5 5.3-11.8 11.8-11.8v3.9c-4.3 0-7.9 3.5-7.9 7.9z"/></g><g id="XMLID_201_"><path id="XMLID_84_" class="st5" d="M1826.4 1193.6c-7.5 0-13.6-6.1-13.6-13.6s6.1-13.6 13.6-13.6 13.6 6.1 13.6 13.6-6.1 13.6-13.6 13.6zm0-23.3c-5.3 0-9.7 4.3-9.7 9.7 0 5.3 4.3 9.7 9.7 9.7 5.3 0 9.7-4.3 9.7-9.7-.1-5.3-4.4-9.7-9.7-9.7z"/></g><g id="XMLID_200_"><path id="XMLID_83_" class="st5" d="M1807.5 1178.1h3.8v3.9h-3.8z"/></g><g id="XMLID_199_"><path id="XMLID_82_" class="st5" d="M1841.1 1178.1h3.8v3.9h-3.8z"/></g></g></g></svg>